<svg width="220" height="18" viewBox="0 0 220 18" fill="none" xmlns="http://www.w3.org/2000/svg">
<path d="M11.7387 14.7273V17.7594H2.5493V14.7273H11.7387ZM3.86546 0.240642V17.7594H0V0.240642H3.86546ZM10.5529 7.29144V10.2273H2.5493V7.29144H10.5529ZM11.7505 0.240642V3.28476H2.5493V0.240642H11.7505Z" fill="#A3DA8D"/>
<path d="M29.819 0.240642V17.7594H25.9654L19.444 6.43717V17.7594H15.5785V0.240642H19.444L25.9773 11.5628V0.240642H29.819Z" fill="#A3DA8D"/>
<path d="M40.9985 13.873L44.8403 0.240642H49.1444L43.2277 17.7594H40.4175L40.9985 13.873ZM37.5006 0.240642L41.3305 13.873L41.9352 17.7594H39.0895L33.2083 0.240642H37.5006Z" fill="#A3DA8D"/>
<path d="M56.6363 0.240642V17.7594H52.7827V0.240642H56.6363Z" fill="#A3DA8D"/>
<path d="M61.6974 0.240642H68.3256C69.6457 0.240642 70.788 0.441176 71.7524 0.842246C72.7247 1.24332 73.4717 1.8369 73.9934 2.62299C74.5151 3.40909 74.776 4.37968 74.776 5.53476C74.776 6.49733 74.6218 7.31551 74.3135 7.98931C74.0052 8.6631 73.5705 9.22059 73.0092 9.66177C72.4559 10.1029 71.8077 10.4599 71.0647 10.7326L69.8078 11.4305H64.1637L64.14 8.38636H68.3375C68.9145 8.38636 69.3928 8.28209 69.7722 8.07353C70.1516 7.86497 70.4362 7.57219 70.6259 7.19519C70.8236 6.81016 70.9224 6.36096 70.9224 5.84759C70.9224 5.31818 70.8236 4.86096 70.6259 4.47594C70.4283 4.09091 70.1358 3.79813 69.7485 3.59759C69.3691 3.38904 68.8948 3.28476 68.3256 3.28476H65.5629V17.7594H61.6974V0.240642ZM71.2544 17.7594L67.3771 9.9746L71.4559 9.96257L75.3925 17.5789V17.7594H71.2544Z" fill="#A3DA8D"/>
<path d="M93.7338 8.61497V9.39706C93.7338 10.7286 93.552 11.9238 93.1883 12.9826C92.8326 14.0414 92.3228 14.9439 91.6588 15.6898C91.0027 16.4358 90.2201 17.0094 89.311 17.4104C88.4099 17.8035 87.4099 18 86.3111 18C85.2124 18 84.2085 17.8035 83.2994 17.4104C82.3904 17.0094 81.5999 16.4358 80.928 15.6898C80.264 14.9439 79.7502 14.0414 79.3865 12.9826C79.0229 11.9238 78.8411 10.7286 78.8411 9.39706V8.61497C78.8411 7.28342 79.0229 6.08824 79.3865 5.02941C79.7502 3.96257 80.26 3.05615 80.9161 2.31016C81.5801 1.56417 82.3666 0.994652 83.2757 0.601604C84.1848 0.200535 85.1887 0 86.2874 0C87.3862 0 88.3901 0.200535 89.2992 0.601604C90.2082 0.994652 90.9908 1.56417 91.6469 2.31016C92.3109 3.05615 92.8247 3.96257 93.1883 5.02941C93.552 6.08824 93.7338 7.28342 93.7338 8.61497ZM89.8327 9.39706V8.59091C89.8327 7.70053 89.7537 6.91444 89.5956 6.23262C89.4375 5.54278 89.2083 4.96524 88.9079 4.5C88.6075 4.03476 88.236 3.68583 87.7933 3.45321C87.3506 3.21257 86.8487 3.09225 86.2874 3.09225C85.7025 3.09225 85.1926 3.21257 84.7579 3.45321C84.3231 3.68583 83.9555 4.03476 83.6551 4.5C83.3627 4.96524 83.1374 5.54278 82.9793 6.23262C82.8291 6.91444 82.754 7.70053 82.754 8.59091V9.39706C82.754 10.2794 82.8291 11.0655 82.9793 11.7553C83.1374 12.4372 83.3666 13.0147 83.667 13.488C83.9674 13.9612 84.3349 14.3182 84.7697 14.5588C85.2124 14.7995 85.7262 14.9198 86.3111 14.9198C86.8724 14.9198 87.3704 14.7995 87.8052 14.5588C88.2478 14.3182 88.6194 13.9612 88.9197 13.488C89.2201 13.0147 89.4454 12.4372 89.5956 11.7553C89.7537 11.0655 89.8327 10.2794 89.8327 9.39706Z" fill="#A3DA8D"/>
<path d="M112.288 0.240642V17.7594H108.435L101.913 6.43717V17.7594H98.0479V0.240642H101.913L108.447 11.5628V0.240642H112.288Z" fill="#A3DA8D"/>
<path d="M118.938 0.240642H122.14L126.29 12.766L130.428 0.240642H133.63L127.582 17.7594H124.986L118.938 0.240642ZM117.089 0.240642H120.349L120.954 13.2233V17.7594H117.089V0.240642ZM132.219 0.240642H135.491V17.7594H131.614V13.2233L132.219 0.240642Z" fill="#A3DA8D"/>
<path d="M152.042 14.7273V17.7594H142.853V14.7273H152.042ZM144.169 0.240642V17.7594H140.303V0.240642H144.169ZM150.856 7.29144V10.2273H142.853V7.29144H150.856ZM152.054 0.240642V3.28476H142.853V0.240642H152.054Z" fill="#A3DA8D"/>
<path d="M170.122 0.240642V17.7594H166.269L159.747 6.43717V17.7594H155.882V0.240642H159.747L166.281 11.5628V0.240642H170.122Z" fill="#A3DA8D"/>
<path d="M182.606 0.240642V17.7594H178.752V0.240642H182.606ZM187.859 0.240642V3.28476H173.606V0.240642H187.859Z" fill="#A3DA8D"/>
<path d="M197.532 3.57353L193.074 17.7594H188.948L195.339 0.240642H197.947L197.532 3.57353ZM201.232 17.7594L196.762 3.57353L196.299 0.240642H198.943L205.358 17.7594H201.232ZM201.042 11.238V14.2701H192.043V11.238H201.042Z" fill="#A3DA8D"/>
<path d="M220 14.7273V17.7594H211.285V14.7273H220ZM212.601 0.240642V17.7594H208.736V0.240642H212.601Z" fill="#A3DA8D"/>
</svg>
