<svg width="64" height="40" viewBox="0 0 64 40" fill="none" xmlns="http://www.w3.org/2000/svg">
<path d="M33.5893 40C33.1943 23.2493 18.7789 11.0147 11.6206 6.99122C29.5904 12.312 37.045 28.915 38.5261 36.5513C39.9084 33.7924 39.7603 28.176 39.5135 25.7126C39.1185 18.027 31.7791 10.8505 28.1588 8.22289C20.2599 0.093861 -0.721408 -0.645142 0.0191097 0.340195C0.611524 1.12846 3.06346 12.9853 4.21538 18.8153C8.75722 34.9748 25.6904 39.6716 33.5893 40Z" fill="#A3DA8D"/>
<path d="M44.4779 23.9883C44.7039 14.4978 52.955 7.5661 57.0523 5.28654C46.7667 8.30115 42.4999 17.7078 41.6521 22.0344C40.8609 20.4712 40.9457 17.2891 41.087 15.8935C41.313 11.5391 45.514 7.47306 47.5862 5.98436C52.1073 1.37871 64.1167 0.960016 63.6928 1.51828C63.3537 1.96489 61.9503 8.68262 61.2909 11.9857C58.6913 21.1411 48.999 23.8022 44.4779 23.9883Z" fill="#FAFAFA"/>
</svg>
