<svg width="70" height="76" viewBox="0 0 70 76" fill="none" xmlns="http://www.w3.org/2000/svg">
<path d="M47.5156 0.781208C47.2187 0.921833 46.7656 1.31246 46.4999 1.64058L46.0156 2.24996L45.9374 5.10933L45.8593 7.98433L40.8593 5.54683C36.0781 3.20308 35.8124 3.09371 34.7656 3.04683C33.6718 2.98433 33.6718 2.98433 31.2499 4.17183C29.9218 4.82808 22.7187 8.35933 15.2343 12.0156C7.76557 15.6718 1.45307 18.8437 1.21869 19.0625C0.656193 19.5781 0.515569 20.3125 0.859319 21.0156C1.15619 21.6562 2.01557 22.1406 2.64057 22.0156C2.85932 21.9687 10.1562 18.4375 18.8437 14.1875L34.6562 6.43746L40.8749 9.48433C47.7031 12.8125 47.9843 12.9062 48.8593 12.1562L49.2968 11.7812L49.3749 7.89058L49.4531 4.01558L52.1406 3.96871L54.8281 3.93746L54.8749 9.85933C54.9218 15.5625 54.9374 15.8125 55.2499 16.2187C55.6874 16.8125 66.2031 22.0781 67.1562 22.1875C68.3125 22.3125 69.0625 21.625 69.0625 20.4375C69.0625 19.4531 68.6406 19.1562 63.375 16.5781L58.4374 14.1718V8.43746C58.4374 4.78121 58.3749 2.54683 58.2656 2.26558C58.1874 2.03121 57.9218 1.62496 57.6874 1.37496C56.9062 0.546833 56.6249 0.499958 52.1562 0.499958C48.5468 0.499958 47.9843 0.531208 47.5156 0.781208Z" fill="#146356"/>
<path d="M20.4688 16.9063C17.8594 17.2344 15.2969 19 14.0625 21.2969C13.5 22.3594 12.9688 24.3125 12.9688 25.3281C12.9844 27.9219 14.3281 30.6406 16.375 32.2031C18.0156 33.4688 19.5312 33.9688 21.7188 33.9531C24.0938 33.9531 26.2031 33.0313 27.8594 31.25C30.9375 27.9688 30.9375 22.8906 27.875 19.5625C26.0625 17.6094 23.1406 16.5625 20.4688 16.9063ZM23.8281 20.6719C24.875 21.1875 25.875 22.2031 26.375 23.2813C26.7188 24.0156 26.7812 24.3906 26.7812 25.4219C26.7812 27.3281 26.0312 28.75 24.4844 29.7656C21.8281 31.5 18.3438 30.5781 16.9219 27.7813C15.5312 25.0313 16.75 21.7813 19.625 20.5625C20.8594 20.0469 22.6562 20.0938 23.8281 20.6719Z" fill="#146356"/>
<path d="M49.25 28.2344C47.1719 28.7032 44.9844 30.4063 44.0312 32.2813C43.375 33.5782 43.125 34.5782 43.125 35.9844C43.125 41.6875 49.1875 45.5313 54.3594 43.0782C56.4688 42.0625 58.2656 39.8125 58.7344 37.5625C59.8906 32.0157 54.7656 26.9688 49.25 28.2344ZM53.0625 31.875C55.875 33.3282 56.3906 37.2188 54.0469 39.3125C51.7656 41.375 48.2188 40.6563 46.8438 37.8594C46.3594 36.875 46.3438 35.1094 46.8125 34.0782C47.8906 31.75 50.8281 30.7188 53.0625 31.875Z" fill="#146356"/>
<path d="M13.5781 36.0469C11.3281 36.5 9.42188 37.5313 7.75 39.1875C6.5625 40.3594 5.82812 41.4688 5.20312 43C4.45312 44.8906 4.375 45.6094 4.375 51.9844C4.375 57.8906 4.375 57.9219 4.75 58.7031C5.1875 59.6406 5.625 60.0625 6.5625 60.4844C7.23438 60.7969 7.5625 60.8125 14.1875 60.8125C21.875 60.8125 21.8438 60.8125 22.2812 59.7969C22.5781 59.0938 22.4062 58.3906 21.8438 57.9219L21.375 57.5313H17.5781H13.7656L13.7188 52.1563L13.6719 46.7813L13.2969 46.375C12.7656 45.8125 11.9219 45.8125 11.3906 46.375L11.0156 46.7813L10.9688 52.1563L10.9219 57.5469L9.32812 57.5L7.73438 57.4531V51.6719C7.73438 46.5781 7.76562 45.7813 8.01562 45C8.95312 41.9531 11.6562 39.6406 14.7812 39.2344C16.5781 39 28.4531 39.125 29.2969 39.3906C29.6406 39.5 30.4688 39.8594 31.125 40.2031C32.6406 40.9688 33 40.9688 33.7031 40.2656C34.2188 39.75 34.25 39.6563 34.1719 39C34.0781 38.0938 33.8281 37.8281 32.2812 37.0781C29.9062 35.9063 30.0156 35.9063 21.875 35.875C16.25 35.8438 14.375 35.875 13.5781 36.0469Z" fill="#146356"/>
<path d="M33.75 42.0625C29.7031 42.9218 27.4062 47.5468 29.1718 51.3281C31.4062 56.0937 37.9218 56.5156 40.7812 52.0781C41.7343 50.5781 42.0312 48.3749 41.5 46.5937C40.9687 44.7968 39.3125 43.0468 37.5468 42.375C36.5156 41.9843 34.7968 41.8437 33.75 42.0625ZM36.6875 45.6406C38.75 46.7031 39.0625 49.5312 37.2968 51.0781C36.0625 52.1562 34.3437 52.1562 33.0312 51.0781C31.2968 49.6406 31.5625 46.7187 33.5156 45.7031C34.625 45.1093 35.625 45.0937 36.6875 45.6406Z" fill="#146356"/>
<path d="M44.0937 45.7344C43.4843 46 43.0624 46.875 43.2031 47.5469C43.2656 47.7969 43.5156 48.1719 43.7812 48.3906L44.2499 48.7812H50.1249C53.3593 48.7812 56.5156 48.8594 57.1093 48.9375C60.1406 49.375 62.5156 51.8125 62.9687 54.9531C63.0468 55.5469 63.1249 58.0625 63.1249 60.5312V65.0312H62.1093H61.0937V60.5156C61.0937 57.5625 61.0312 55.8437 60.9218 55.5C60.6874 54.8594 59.9218 54.5 59.2656 54.7187C58.3906 55.0312 58.3593 55.1562 58.3124 60.2969L58.2656 65.0312H54.4374C50.2031 65.0312 49.9062 65.0937 49.4374 65.9844C49.0937 66.6562 49.2656 67.4062 49.8593 67.9219L50.3437 68.3281L57.2656 68.2812L64.1874 68.2344L64.8749 67.7656C65.3124 67.4531 65.7031 67 65.9843 66.4375L66.4218 65.5781L66.3749 59.7187L66.3281 53.8594L65.8906 52.6094C64.7656 49.4062 62.4218 47.0625 59.3281 46.0156L58.0468 45.5781L51.3281 45.5469C45.7187 45.5156 44.5312 45.5469 44.0937 45.7344Z" fill="#146356"/>
<path d="M29.4999 56.6094C26.3593 57.0625 23.6249 59.5313 22.578 62.8438C22.2187 63.9688 22.0468 71.4688 22.3437 72.9063C22.5937 74.1406 23.4999 75.0781 24.6718 75.3281C25.7968 75.5625 44.203 75.5625 45.328 75.3281C46.453 75.0781 47.2655 74.3281 47.5937 73.2031C47.7968 72.4844 47.828 71.6406 47.7812 67.9531C47.703 63.125 47.6405 62.75 46.6718 60.8906C45.5624 58.8125 42.9999 56.9844 40.6249 56.6094C39.4374 56.4063 30.7968 56.4219 29.4999 56.6094ZM41.4374 60.3125C42.9999 61.0781 44.0624 62.5938 44.3749 64.4219C44.453 64.9688 44.5312 66.9219 44.5312 68.7344V72.0625H43.9843H43.4374V68.4063C43.4374 64.8125 43.4374 64.7344 43.078 64.3281C42.8124 64 42.578 63.9063 42.1093 63.9063C41.6405 63.9063 41.4062 64 41.1405 64.3281C40.7812 64.7344 40.7812 64.8125 40.7812 68.4063V72.0625H35.3124H29.8437V68.6406C29.8437 64.8594 29.7499 64.3281 29.0312 64.0313C28.4218 63.7656 27.9218 63.875 27.4687 64.3594C27.1093 64.7344 27.1093 64.8125 27.0624 68.4063L26.9999 72.0625H26.3124H25.6249V68.2188C25.6249 65.6719 25.6874 64.1406 25.8124 63.7188C26.2655 62.1563 27.5312 60.75 28.9687 60.1875C29.7187 59.9063 30.1249 59.8906 35.2343 59.9219C40.5937 59.9531 40.7187 59.9531 41.4374 60.3125Z" fill="#146356"/>
</svg>
