<svg width="80" height="80" viewBox="0 0 80 80" fill="none" xmlns="http://www.w3.org/2000/svg">
<path d="M36.1719 0.171822C18.5938 1.8437 3.89065 15.2656 0.718771 32.5625C-1.84373 46.4218 2.70315 60 13.1094 69.5624C19.0469 75.0312 26.5781 78.4999 35.0781 79.7187C36.9375 79.9843 43.0781 79.9687 45 79.7031C54.7188 78.3593 62.9375 74.0781 69.5625 66.8906C75.0156 60.9843 78.5156 53.4218 79.7188 44.9218C80.0313 42.75 79.9844 37.0625 79.625 34.6093C79.2969 32.1875 78.375 28.4687 77.5781 26.3125C76.875 24.3906 74.9688 20.4687 73.9688 18.9062C70.9063 14.0781 66.625 9.70307 61.9531 6.5937C59.875 5.20307 55.8438 3.18745 53.5156 2.35932C47.9375 0.390572 41.9219 -0.375053 36.1719 0.171822ZM46.0156 3.73432C49.8438 4.42182 52.6875 5.3437 56.1719 7.0312C63.4219 10.5468 69.4688 16.5937 72.9688 23.8125C75.4375 28.9218 76.5156 33.2968 76.6719 38.8437C76.8125 43.625 76.2969 47.2187 74.8281 51.6406C72.1406 59.6718 66.7188 66.5624 59.4375 71.1718C54.9844 73.9999 49.0938 76.0156 43.6094 76.5781C41.1094 76.8437 36.375 76.6874 33.9844 76.2656C22.1094 74.1718 12.1563 66.75 7.03127 56.1718C5.32815 52.6718 4.4219 49.8437 3.71877 45.9531C3.2344 43.2812 3.20315 37.1093 3.64065 34.4531C5.40627 23.9531 11 15.2187 19.7188 9.3437C24.0625 6.42182 29.7344 4.2812 34.9219 3.60932C35.6094 3.51557 36.3906 3.4062 36.6406 3.37495C36.9063 3.3437 38.6875 3.32807 40.625 3.35932C43.3594 3.39057 44.5625 3.4687 46.0156 3.73432Z" fill="#146356"/>
<path d="M36.5625 7.60929C35.0469 7.76554 32.3281 8.34367 30.7344 8.82804C27.75 9.71867 23.8594 11.5312 23.3594 12.2343C22.7656 13.0937 22.8438 13.2655 27.8281 21.9218C30.4063 26.4062 32.7344 30.2655 32.9844 30.4999C33.5938 31.078 34.125 31.0624 35.5938 30.4062C37.2969 29.6718 38.2813 29.4687 40.0781 29.4687C41.8438 29.4843 43.1719 29.7812 44.5469 30.4843C45.7188 31.0624 46.4063 31.078 47.0156 30.4999C47.7344 29.828 56.9063 13.828 56.9219 13.203C56.9375 12.4374 56.5469 11.9843 55.2813 11.2812C51.9688 9.46867 47.8125 8.17179 43.75 7.65617C42.5156 7.51554 37.7969 7.46867 36.5625 7.60929ZM44.3594 11.0312C47.0156 11.4218 50.4688 12.4687 52.3906 13.4687L53.0938 13.828L49.2656 20.4687C47.1563 24.1249 45.4063 27.1249 45.3906 27.1562C45.3594 27.1874 44.7656 27.0312 44.0781 26.8124C41.4219 25.9687 38.5781 25.9687 35.9219 26.8124C35.2344 27.0312 34.6406 27.1874 34.6094 27.1562C34.5938 27.1249 32.8438 24.1249 30.7344 20.4687L26.8906 13.828L27.6094 13.4687C29.3438 12.578 32.6563 11.5312 35.1563 11.0937C37.8438 10.6093 41.3906 10.578 44.3594 11.0312Z" fill="#146356"/>
<path d="M38.0156 32.4218C36.6562 32.7968 35.6093 33.4218 34.5156 34.5156C31.375 37.6718 31.5 42.6093 34.7968 45.625C37.9375 48.5 42.7187 48.3125 45.6093 45.2187C46.7031 44.0625 47.2656 42.9843 47.5937 41.4062C48.4219 37.4531 45.8906 33.4531 41.9218 32.4218C40.8125 32.1249 39.0937 32.1406 38.0156 32.4218ZM41.5937 35.7187C42.5468 36.0312 43.4218 36.8124 43.9843 37.8281C44.3906 38.5624 44.4531 38.8281 44.4531 39.9218C44.4531 41.2968 44.1875 42 43.2656 43.0312C41.6718 44.8593 38.3281 44.8593 36.7343 43.0312C35.8125 42 35.5468 41.2968 35.5468 39.9218C35.5468 38.8281 35.6093 38.5624 36.0156 37.8281C36.5625 36.8437 37.4531 36.0312 38.3437 35.7187C39.2031 35.4218 40.7187 35.4062 41.5937 35.7187Z" fill="#146356"/>
<path d="M8.67195 38.2655C8.50008 38.3437 8.21883 38.5624 8.04695 38.7499C7.35945 39.5155 7.85945 44.8437 8.98445 48.7499C10.422 53.7343 13.047 58.2499 16.7032 62.0624C18.7188 64.1718 20.172 65.3905 22.3907 66.8437C24.2657 68.078 24.8907 68.2187 25.5938 67.5624C26.3126 66.9062 35.4688 50.953 35.4688 50.3749C35.4688 49.7499 35.172 49.3593 34.0001 48.5312C31.3438 46.6405 29.547 43.3749 29.5313 40.4687C29.5313 39.4687 29.1563 38.6093 28.5938 38.328C28.297 38.1718 25.9845 38.1249 18.5938 38.1405C13.3126 38.1405 8.84383 38.203 8.67195 38.2655ZM26.3126 41.5937C26.3438 41.703 26.5157 42.4218 26.7032 43.203C27.3126 45.7812 28.5782 47.9374 30.5938 49.8749L31.672 50.9218L28.0938 57.1405C26.1095 60.5624 24.4063 63.5155 24.2813 63.7187L24.047 64.0624L23.3126 63.5624C22.172 62.7968 20.3438 61.2187 19.2032 60.0468C14.5157 55.2187 11.8126 49.3437 11.0157 42.2968L10.922 41.4062H18.5938C24.5938 41.4062 26.2657 41.453 26.3126 41.5937Z" fill="#146356"/>
<path d="M51.4062 38.3281C50.8437 38.6093 50.4687 39.4687 50.4687 40.4687C50.4531 43.375 48.6562 46.6406 46 48.5312C44.8281 49.3593 44.5312 49.75 44.5312 50.375C44.5312 50.9531 53.6875 66.9062 54.4062 67.5625C54.8125 67.9375 54.9844 67.9843 55.4844 67.9218C56.1562 67.8281 58.4531 66.3906 60.3281 64.875C62.0156 63.5156 64.9062 60.4531 66.125 58.7343C69.9687 53.3281 72.1719 46.8593 72.25 40.8125L72.2656 39.0468L71.75 38.5781L71.25 38.125H61.5156C54.0625 38.125 51.7031 38.1718 51.4062 38.3281ZM68.9844 42.2968C68.1406 49.7656 65.0312 56.1093 59.8594 60.9687C58.1719 62.5625 56.0781 64.1093 55.8906 63.9218C55.8125 63.8437 54.0781 60.8906 52.0312 57.3437L48.3281 50.9218L49.4219 49.875C51.4219 47.9375 52.6875 45.7812 53.2969 43.2031C53.4844 42.4218 53.6562 41.7031 53.6875 41.5937C53.7344 41.4531 55.4062 41.4062 61.4062 41.4062H69.0781L68.9844 42.2968Z" fill="#146356"/>
</svg>
