<svg width="80" height="78" viewBox="0 0 80 78" fill="none" xmlns="http://www.w3.org/2000/svg">
<path d="M19.6875 0.968742C19.5625 1.03124 19.2969 1.21874 19.1094 1.39062C18.7656 1.70312 18.75 1.81249 18.75 4.48437C18.75 10.5312 20.0312 14.5 22.9688 17.4531C24.0625 18.5625 24.5469 18.9219 25.6719 19.4531C27.2969 20.25 29.375 20.7187 31.25 20.7187C32.5156 20.7187 35.2344 20.3906 35.8281 20.1562C36.0469 20.0781 36.2188 20.3281 36.8125 21.5937C38.5938 25.375 39.7188 29.7344 40.4062 35.4844C40.875 39.375 40.8594 47.7812 40.375 51.3125L40.2812 51.9687L39.4688 51.875C36.875 51.5469 35.3594 51 32.2812 49.25C28.0781 46.8594 23.9375 45.1562 19.9219 44.1719C15.0625 42.9844 10.9062 43.5156 6.71875 45.875C4.57812 47.0781 2.1875 49.0469 0.78125 50.7344L0 51.6719V58.4531V65.2344L0.359375 65.6406C0.65625 66 0.890625 66.0781 2.03125 66.2031C8.32812 66.9062 10.9531 67.375 14.2969 68.3906C16.625 69.125 18.6406 69.9219 25.7812 73.0156C33.1719 76.2187 33.1875 76.2187 35.0469 76.6562C38.1406 77.3906 41.7188 77.3594 44.8125 76.5781C45.625 76.3594 48.7656 75.2187 51.7812 74.0156C54.7969 72.8125 57.6875 71.7187 58.2031 71.5937C63.6094 70.2187 67.5781 67.1094 69.9531 62.3594C71.0781 60.1406 80 39.6875 80 39.3594C80 38.8594 79.4062 38.2344 78.8438 38.1406C78.0469 37.9844 75.375 38.3594 74.1562 38.7969C72.5312 39.375 70.9688 40.4062 69.75 41.7031C69.1562 42.3281 66.3594 45.5312 63.5156 48.7969L58.3594 54.7656L57.7031 54C57.3281 53.5937 56.7188 53.0625 56.3438 52.8437C54.9688 52.0469 54.3125 51.9687 48.3906 51.9687H42.9531L43.0312 51.4531C43.0781 51.1875 43.1562 50.3906 43.2031 49.7031C43.4688 46.1562 44.7188 41.1875 46.125 38.0312C46.6719 36.8281 46.5156 36.875 48.2031 37.3594C49.625 37.7656 52.3906 37.8437 53.5312 37.5156C58.0312 36.2187 60.7031 31.5469 61.4062 23.6562C61.7188 20.2812 61.5781 19.0781 60.8438 18.6719C60.2812 18.375 55.8438 18.4219 53.875 18.75C49.2656 19.5 45.9375 21.625 44.4062 24.7812C43.4531 26.7031 43.2188 27.7812 43.2188 30.0937C43.2344 32.1406 43.4219 33.4687 43.9219 34.9687L44.2188 35.8437L43.7656 36.8437L43.3125 37.8281L43.2188 37.2812C43.1719 36.9844 43.0625 35.9531 42.9688 35.0156C42.4062 29.3594 40.9531 24.0156 38.8438 19.8125L38.1562 18.4375L38.4688 17.7344C39.3906 15.6875 39.875 12.9531 39.6719 10.9531C39.125 5.64062 34.6562 2.34374 26.5469 1.26562C24.625 0.999992 20.0625 0.812492 19.6875 0.968742ZM25.625 3.76562C29.9844 4.28124 33.1562 5.43749 35.125 7.20312C36.2188 8.18749 37 9.78124 37.125 11.2656C37.2031 12.3594 36.9375 14.375 36.5781 15.3125L36.3906 15.7656L35.8281 15.0781C34.8281 13.875 33.0156 12.1562 31.8438 11.3281C30.3906 10.3125 28.4219 9.31249 27.8438 9.31249C26.9219 9.31249 26.3594 10.1719 26.7188 11.0469C26.8438 11.3437 27.2344 11.6562 28.0156 12.0625C30.2656 13.2344 32.1406 14.75 33.7812 16.7187C34.3438 17.3906 34.5 17.6875 34.375 17.8125C34.2656 17.9219 33.3281 17.9844 31.6719 17.9844C29.4062 17.9844 29.0156 17.9375 28.0469 17.6094C26.625 17.125 25.8438 16.6719 24.875 15.7344C22.6719 13.625 21.5625 10.4687 21.3125 5.54687L21.2031 3.53124H22.4375C23.125 3.53124 24.5469 3.64062 25.625 3.76562ZM58.9062 21.8906C58.9062 25.0625 57.9844 29.1875 56.75 31.5781C55.5 33.9687 53.7188 35.1406 51.3281 35.1562C50.2656 35.1562 48.2344 34.7812 47.9844 34.5469C47.9531 34.5 48.3281 33.8594 48.8438 33.1094C49.9375 31.5 51.8281 29.4687 53.2656 28.3437C54.5156 27.3594 54.5312 27.3281 54.5312 26.6875C54.5312 26.3437 54.4062 26.0469 54.125 25.7656C53.6094 25.25 52.9688 25.3437 51.9219 26.0469C50.7656 26.8281 48.1406 29.5469 47 31.1406L45.9844 32.5781L45.875 31.8594C45.5781 29.6875 45.9844 27.2031 46.8906 25.625C48.5469 22.7344 52.2656 21.125 57.5469 21.0469L58.9062 21.0312V21.8906ZM76.5625 40.9531C76.5625 41.0781 68 60.5 67.5625 61.3906C65.6562 65.1719 62.3281 67.7656 57.8906 68.9687C56.9375 69.2187 53.8906 70.3437 51.0938 71.4687C48.2969 72.5781 45.5312 73.6406 44.9375 73.8281C41.5469 74.875 37.6094 74.8437 34.3125 73.7656C33.6406 73.5469 30.1875 72.1094 26.6406 70.5625C23.0938 69.0156 19.375 67.4375 18.3906 67.0625C13.9531 65.3437 9.39062 64.3125 3.71875 63.75L2.65625 63.6562V58.0625V52.4687L4.04688 51.1562C6.3125 49 9.1875 47.2969 11.8125 46.5781C13.25 46.1875 16.3906 46.0937 17.9219 46.4062C22.1875 47.2656 26.7031 49.0469 31.1562 51.625C33.4844 52.9687 35.2812 53.7344 37.1875 54.1875C38.4062 54.4844 39.1875 54.5156 46.4062 54.6094C55.0469 54.7187 54.7188 54.6719 55.6562 55.6719C56.8438 56.9219 56.8438 58.8906 55.6562 60.1406C54.7031 61.1562 55.3125 61.0937 43.9062 61.2031C32.8438 61.2969 32.4062 61.3281 29.6562 62.1406L28.6094 62.4375L28.9062 63.2656C29.0625 63.7031 29.2656 64.2656 29.3438 64.5L29.5156 64.9062L30.5 64.6094C32.7969 63.9219 34.1094 63.8437 44.0938 63.8437C49.75 63.8437 53.875 63.7812 54.375 63.6875C55.5625 63.4687 56.5312 62.9375 57.4219 62.0469C58.375 61.0937 58.875 60.1094 59.1094 58.7187L59.2812 57.6719L65.3594 50.6406C71.7344 43.2656 72.2969 42.6562 73.4219 42C74.5625 41.3281 76.5625 40.6719 76.5625 40.9531Z" fill="#146356"/>
</svg>
