<svg width="144" height="145" viewBox="0 0 144 145" fill="none" xmlns="http://www.w3.org/2000/svg">
<circle cx="71.4999" cy="72.4999" r="70.4999" stroke="#A3DA8D" stroke-width="2"/>
<path d="M70.2695 2.01074C82.8614 1.79095 95.2823 4.94817 106.241 11.1542C117.199 17.3602 126.296 26.3883 132.584 37.3001C138.871 48.2118 142.122 60.6087 141.996 73.2019C141.871 85.7951 138.374 98.1248 131.87 108.909C125.366 119.694 116.092 128.539 105.012 134.525C93.9325 140.512 81.4511 143.421 68.8661 142.951C56.2811 142.48 44.0518 138.647 33.4498 131.85C22.8477 125.053 14.26 115.54 8.57934 104.3" stroke="#146356" stroke-width="4" stroke-linecap="round"/>
<path d="M53.5386 52.2075C53.3387 52.3992 53.3304 52.4576 53.3304 53.4326C53.3221 54.7493 53.1888 55.466 52.7056 56.7494C52.0142 58.6078 52.0559 58.1911 52.0226 63.833C51.9976 67.6998 52.0142 68.9582 52.0892 69.2499C52.1642 69.5082 52.3308 69.7582 52.614 70.0499C53.1138 70.5416 53.5969 70.7166 54.2467 70.6332C54.6382 70.5832 54.6632 70.5916 54.6632 70.7583C54.6632 71.4416 55.3713 72.3666 56.046 72.5667C56.4625 72.6833 56.9123 72.6917 57.1956 72.5833C57.3705 72.5167 57.4122 72.5333 57.4621 72.6917C57.5788 73.0583 57.9453 73.5167 58.2868 73.7167C59.503 74.4251 61.1107 73.675 61.294 72.3083L61.3523 71.9166L61.7522 71.9666C62.3103 72.0416 62.8351 71.875 63.2766 71.4916C63.968 70.8833 63.943 71.0166 63.993 66.8831L64.0346 63.2246L64.5594 63.8997C65.3924 64.9747 65.9089 65.333 66.6586 65.333C67.9415 65.333 68.9744 63.933 68.5579 62.7413C68.4663 62.4663 66.1422 58.7411 65.0342 57.0827C64.7427 56.6494 64.2346 55.991 63.9097 55.6327C63.085 54.7076 62.6602 53.7243 62.6602 52.7409C62.6602 52.0742 61.9771 51.7575 61.5189 52.2159C61.3107 52.4242 61.3023 52.4576 61.3523 53.0909C61.4523 54.341 61.9438 55.4327 62.9101 56.541C63.9013 57.6744 67.325 62.958 67.325 63.358C67.325 63.6747 66.9835 63.9997 66.6586 63.9997C66.3421 63.9997 66.2921 63.9497 65.0093 62.3579C64.0846 61.1996 63.993 61.0579 63.993 60.7495C63.993 60.0828 63.3099 59.7578 62.8684 60.2079L62.6602 60.4079V65.333V70.2582L62.4519 70.4582C62.3269 70.5916 62.152 70.6666 61.9937 70.6666C61.8355 70.6666 61.6605 70.5916 61.5356 70.4582L61.3273 70.2582V66.9998V63.7413L61.1191 63.5413C60.9941 63.408 60.8192 63.333 60.6609 63.333C60.5026 63.333 60.3277 63.408 60.2028 63.5413L59.9945 63.7413V67.9998V72.2583L59.7863 72.4583C59.6613 72.5917 59.4864 72.6667 59.3281 72.6667C59.1698 72.6667 58.9949 72.5917 58.8699 72.4583L58.6617 72.2583V67.9998V63.7413L58.4534 63.5413C58.1869 63.2663 57.8037 63.2663 57.5371 63.5413L57.3289 63.7413V67.3331V70.9249L57.1206 71.1249C56.9957 71.2583 56.8207 71.3333 56.6624 71.3333C56.5042 71.3333 56.3292 71.2583 56.2043 71.1249L55.996 70.9249V67.3331V63.7413L55.7878 63.5413C55.5212 63.2663 55.138 63.2663 54.8715 63.5413L54.6632 63.7413V66.3331V68.9248L54.455 69.1249C54.33 69.2582 54.1551 69.3332 53.9968 69.3332C53.8385 69.3332 53.6636 69.2582 53.5386 69.1249L53.3304 68.9248V64.2163C53.3304 58.9411 53.3387 58.8911 53.9135 57.3661C54.4966 55.816 54.5882 55.3577 54.6382 53.8159L54.6882 52.4326L54.4716 52.2159C54.1884 51.9325 53.8135 51.9325 53.5386 52.2075Z" fill="#146356"/>
<path d="M74.6551 52.1076C74.4968 52.1576 74.1719 52.3909 73.9387 52.6242C73.4472 53.1159 73.2723 53.5993 73.3556 54.2493C73.4056 54.641 73.3972 54.666 73.2306 54.666C72.5476 54.666 71.6229 55.3743 71.423 56.0494C71.3064 56.4661 71.298 56.9161 71.4063 57.1994C71.473 57.3744 71.4563 57.4161 71.298 57.4661C70.9315 57.5828 70.4733 57.9494 70.2734 58.2911C69.5654 59.5078 70.3151 61.1162 71.6812 61.2996L72.0727 61.3579L72.0228 61.7579C71.9478 62.3163 72.1144 62.8413 72.4976 63.283C73.1057 63.9747 72.9724 63.9497 77.1041 63.9997L80.7611 64.0413L80.0863 64.5664C78.9951 65.4081 78.6536 65.9081 78.6536 66.6581C78.6536 67.9498 80.0447 68.9749 81.2442 68.5665C81.4025 68.5165 82.827 67.6415 84.4263 66.6331C86.4256 65.3581 87.5835 64.5664 88.1749 64.058C89.3578 63.0413 90.1908 62.6663 91.2487 62.6663C91.9068 62.6663 92.215 61.9829 91.7652 61.5246C91.557 61.3162 91.5236 61.3079 90.8489 61.3662C89.5661 61.4579 88.5664 61.9329 87.3169 63.0413C86.6588 63.6163 86.2673 63.883 83.2268 65.8164C81.6441 66.8248 80.7694 67.3331 80.6195 67.3331C80.1197 67.3331 79.8031 66.6498 80.1363 66.2664C80.2113 66.1748 80.8694 65.6247 81.5858 65.0497C82.7853 64.083 82.9186 63.9997 83.2351 63.9997C83.9015 63.9997 84.2264 63.3163 83.7766 62.8746L83.5767 62.6663H78.6536H73.7304L73.5305 62.458C73.3972 62.3329 73.3223 62.1579 73.3223 61.9996C73.3223 61.8413 73.3972 61.6663 73.5305 61.5412L73.7304 61.3329H76.9875H80.2446L80.4445 61.1246C80.7194 60.8579 80.7194 60.4745 80.4445 60.2079L80.2446 59.9995H75.9879H71.7312L71.5313 59.7912C71.2564 59.5245 71.2564 59.1412 71.5313 58.8745L71.7312 58.6661H75.9879H80.2446L80.4445 58.4578C80.5778 58.3328 80.6528 58.1578 80.6528 57.9994C80.6528 57.8411 80.5778 57.6661 80.4445 57.5411L80.2446 57.3328H76.6543H73.064L72.8641 57.1244C72.7308 56.9994 72.6558 56.8244 72.6558 56.6661C72.6558 56.5077 72.7308 56.3327 72.8641 56.2077L73.064 55.9994H76.6543H80.2446L80.4445 55.791C80.5778 55.666 80.6528 55.491 80.6528 55.3327C80.6528 55.1743 80.5778 54.9993 80.4445 54.8743L80.2446 54.666H77.6539H75.0633L74.8633 54.4576C74.7301 54.3326 74.6551 54.1576 74.6551 53.9993C74.6551 53.841 74.7301 53.6659 74.8633 53.5409L75.0633 53.3326H79.6948C82.6437 53.3326 84.543 53.3659 84.9262 53.4243C85.2594 53.4743 86.0341 53.6993 86.6505 53.9243C88.3582 54.541 88.6164 54.591 90.1658 54.641L91.5486 54.691L91.7652 54.4743C92.0234 54.216 92.0484 53.8493 91.8235 53.5743C91.6736 53.3826 91.5986 53.3743 90.3408 53.3243C88.858 53.2659 88.6331 53.2159 87.092 52.6576C85.3177 52.0076 85.2344 51.9992 79.7448 52.0076C76.5044 52.0159 74.855 52.0492 74.6551 52.1076Z" fill="#146356"/>
<path d="M68.2824 67.4415C67.416 67.7332 66.758 68.2832 66.3831 69.0416C65.4918 70.85 66.1749 73.0251 68.3574 75.3085C69.5069 76.5169 71.5145 78.0002 71.9893 78.0002C72.2309 78.0002 73.2472 77.3669 74.1968 76.6252C75.5629 75.5585 76.9957 73.8501 77.5288 72.6334C78.2452 71.0083 78.087 69.4249 77.0874 68.3165C75.7379 66.8248 73.547 67.0998 72.3142 68.9082C72.1559 69.1416 72.0143 69.3249 71.9893 69.3249C71.9643 69.3249 71.8227 69.1416 71.6644 68.9082C71.2979 68.3665 70.7564 67.8915 70.1817 67.6165C69.6485 67.3498 68.7905 67.2748 68.2824 67.4415ZM69.6152 68.8249C70.1567 69.0749 70.6481 69.6666 71.1146 70.6C71.5895 71.575 71.806 71.7667 72.2225 71.5667C72.3891 71.4833 72.5557 71.2333 72.864 70.6C73.3471 69.6249 73.9052 68.9916 74.4634 68.7832C75.1881 68.4999 75.9378 68.8249 76.371 69.6083C76.5792 69.9916 76.6125 70.1249 76.6042 70.7083C76.6042 71.2 76.5542 71.5 76.4126 71.8583C76.1127 72.625 75.3047 73.7584 74.455 74.6001C73.6803 75.3751 72.2225 76.5002 71.9893 76.5002C71.7644 76.5002 70.3233 75.3918 69.5402 74.6251C68.6989 73.7918 67.8659 72.6334 67.566 71.8583C67.2911 71.1667 67.2911 70.1833 67.566 69.6749C68.0325 68.7832 68.8238 68.4582 69.6152 68.8249Z" fill="#146356"/>
<path d="M84.0187 70.1166C83.294 70.35 82.7858 70.95 82.6859 71.6917L82.6275 72.0834L82.2277 72.0333C81.6696 71.9583 81.1448 72.125 80.7033 72.5084C80.0119 73.1167 80.0369 72.9834 79.9869 77.1169L79.9452 80.7754L79.4204 80.1003C78.5791 79.0086 78.0793 78.6669 77.3296 78.6669C76.7964 78.6669 76.3799 78.8586 75.9468 79.292C75.3637 79.867 75.1804 80.5587 75.422 81.2587C75.5136 81.5337 77.8377 85.2589 78.9456 86.9173C79.2372 87.3506 79.7453 88.009 80.0702 88.3673C80.8949 89.2923 81.3197 90.2757 81.3197 91.2591C81.3197 91.9258 82.0028 92.2425 82.4609 91.7841C82.6692 91.5758 82.6775 91.5424 82.6192 90.8591C82.5193 89.559 82.1194 88.7257 80.9365 87.3339C80.1285 86.3839 76.6548 80.9587 76.6548 80.642C76.6548 80.3253 76.988 80.0003 77.3212 80.0003C77.6378 80.0003 77.6878 80.0503 78.9706 81.6421C79.8953 82.8004 79.9869 82.9421 79.9869 83.2504C79.9869 83.6755 80.2701 84.0005 80.6533 84.0005C80.8116 84.0005 80.9865 83.9255 81.1115 83.7921L81.3197 83.5921V78.6669V73.7417L81.528 73.5417C81.6529 73.4084 81.8279 73.3334 81.9861 73.3334C82.1444 73.3334 82.3193 73.4084 82.4443 73.5417L82.6525 73.7417V77.0002V80.2587L82.8608 80.4587C83.1274 80.7337 83.5105 80.7337 83.7771 80.4587L83.9854 80.2587V76.0002V71.7417L84.1936 71.5417C84.3186 71.4083 84.4935 71.3333 84.6518 71.3333C84.81 71.3333 84.985 71.4083 85.1099 71.5417L85.3182 71.7417V76.0002V80.2587L85.5264 80.4587C85.793 80.7337 86.1762 80.7337 86.4428 80.4587L86.651 80.2587V76.6669V73.0751L86.8593 72.875C86.9842 72.7417 87.1591 72.6667 87.3174 72.6667C87.4757 72.6667 87.6506 72.7417 87.7756 72.875L87.9838 73.0751V76.6669V80.2587L88.1921 80.4587C88.317 80.592 88.492 80.667 88.6502 80.667C88.8085 80.667 88.9834 80.592 89.1084 80.4587L89.3167 80.2587V77.6669V75.0751L89.5249 74.8751C89.7915 74.6001 90.1747 74.6001 90.4496 74.8751L90.6578 75.0835L90.6245 80.067C90.5912 85.6089 90.6495 85.0755 89.9414 86.9839C89.4749 88.2673 89.3167 89.1423 89.3167 90.5174C89.3167 91.5508 89.325 91.6008 89.5249 91.7924C89.7831 92.0591 90.1747 92.0674 90.4329 91.8091C90.6162 91.6258 90.6328 91.5341 90.6745 90.284C90.7161 88.8507 90.7494 88.7257 91.4658 86.6672C91.6491 86.1422 91.8407 85.4172 91.8907 85.0588C92.024 84.1005 92.0156 75.1751 91.8823 74.7168C91.8157 74.5001 91.6241 74.2168 91.3575 73.9501C90.8661 73.4584 90.3829 73.2834 89.7332 73.3667C89.3416 73.4167 89.3167 73.4084 89.3167 73.2417C89.3167 72.5584 88.6086 71.6333 87.9339 71.4333C87.5173 71.3167 87.0675 71.3083 86.7843 71.4167C86.6094 71.4833 86.5677 71.4667 86.5177 71.3083C86.4011 70.9416 86.0262 70.4833 85.6764 70.275C85.2432 70.0249 84.5185 69.9499 84.0187 70.1166Z" fill="#146356"/>
<path d="M62.7011 75.4335C62.4012 75.5418 61.6849 75.9835 60.5436 76.7418C60.0771 77.0502 59.0109 77.7419 58.1612 78.2752C57.3115 78.8086 56.2119 79.5919 55.7038 80.0086C54.5209 81.0087 53.7795 81.3337 52.7299 81.3337C52.0719 81.3337 51.7636 82.017 52.2135 82.4754C52.4217 82.6837 52.455 82.6921 53.0881 82.6421C54.3377 82.5421 55.4289 82.0504 56.5368 81.0837C57.6697 80.0836 62.951 76.6668 63.3509 76.6668C63.6674 76.6668 63.9923 77.0002 63.9923 77.3335C63.9923 77.6502 63.9423 77.7002 62.3513 78.9836C61.1934 79.9086 61.0518 80.0003 60.7435 80.0003C60.0771 80.0003 59.7523 80.6837 60.2021 81.1253L60.402 81.3337H65.3251H70.2482L70.4482 81.542C70.7231 81.8087 70.7231 82.192 70.4482 82.4587L70.2482 82.6671H66.9912H63.7341L63.5341 82.8754C63.2593 83.1421 63.2593 83.5254 63.5341 83.7921L63.7341 84.0004H67.9908H72.2475L72.4474 84.2088C72.7223 84.4755 72.7223 84.8588 72.4474 85.1255L72.2475 85.3338H67.9908H63.7341L63.5341 85.5422C63.2593 85.8088 63.2593 86.1922 63.5341 86.4589L63.7341 86.6672H67.3244H70.9147L71.1146 86.8756C71.3895 87.1422 71.3895 87.5256 71.1146 87.7923L70.9147 88.0006H67.3244H63.7341L63.5341 88.2089C63.2593 88.4756 63.2593 88.859 63.5341 89.1256L63.7341 89.334H66.3247H68.9154L69.1153 89.5423C69.3902 89.809 69.3902 90.1923 69.1153 90.459L68.9154 90.6674H64.2255C58.9109 90.659 58.8776 90.659 57.2449 90.0423C55.7538 89.484 55.3789 89.409 53.8129 89.359L52.4301 89.309L52.2135 89.5257C51.9302 89.809 51.9302 90.184 52.2051 90.459C52.3967 90.659 52.455 90.6674 53.4463 90.6674C54.7125 90.6674 55.4539 90.8007 56.6285 91.2507C58.6027 91.9924 58.1529 91.9507 63.8257 91.9841C67.6826 92.0008 68.9571 91.9841 69.2403 91.9091C69.4985 91.8341 69.7484 91.6674 70.04 91.3841C70.5315 90.884 70.7064 90.4007 70.6231 89.7507C70.5731 89.359 70.5815 89.334 70.7481 89.334C71.4311 89.334 72.3558 88.6256 72.5557 87.9506C72.6723 87.5339 72.6807 87.0839 72.5724 86.8006C72.5057 86.6255 72.5224 86.5839 72.6807 86.5339C73.2804 86.3422 73.8552 85.6588 73.9552 85.0255C74.1218 83.8921 73.3721 82.8421 72.2975 82.7004L71.9059 82.6421L71.9559 82.242C72.0309 81.6837 71.8643 81.1587 71.4811 80.717C70.873 80.0253 71.0063 80.0503 66.8745 80.0003L63.2176 79.9586L63.8923 79.4336C64.7004 78.8086 65.1002 78.3586 65.2252 77.9252C65.4584 77.1752 65.2835 76.5418 64.7004 75.9585C64.1256 75.3751 63.3925 75.1834 62.7011 75.4335Z" fill="#146356"/>
</svg>
