<svg width="145" height="145" viewBox="0 0 145 145" fill="none" xmlns="http://www.w3.org/2000/svg">
<circle cx="72.4999" cy="72.4999" r="70.4999" stroke="#A3DA8D" stroke-width="2"/>
<path d="M71.2695 2.01074C85.7452 1.75807 99.9476 5.96819 111.947 14.069C123.946 22.1698 133.161 33.7685 138.338 47.289C143.515 60.8095 144.404 75.5961 140.885 89.6395C137.365 103.683 129.607 116.302 118.665 125.783C107.723 135.263 94.127 141.145 79.7254 142.629C65.3238 144.112 50.8145 141.126 38.1693 134.076C25.524 127.026 15.3558 116.254 9.04655 103.223C2.73727 90.1923 0.592795 75.535 2.90453 61.2429" stroke="#146356" stroke-width="4" stroke-linecap="round"/>
<path d="M68.1564 52.1722C65.8057 52.6723 63.9336 54.1407 62.838 56.3327C61.902 58.1948 61.7743 61.8658 62.5614 64.2174C62.8061 64.9409 62.8806 65.3559 62.8806 65.9944C62.8912 67.2074 63.0614 68.8354 63.2741 69.5909C63.689 71.1338 64.6569 72.7937 65.7419 73.8578L66.2843 74.3792V75.7731V77.167L65.4866 78.0395C65.0505 78.5184 64.6888 78.9865 64.6888 79.0717C64.6888 79.2845 64.5824 79.3377 61.9339 80.2953C60.6362 80.7635 59.381 81.2424 59.1364 81.37C58.7109 81.5829 58.679 81.5829 58.3173 81.4126L57.9451 81.2317L58.679 80.8486C59.5512 80.3911 60.9127 79.1249 61.0297 78.6567C61.0723 78.4545 61.0297 78.1034 60.8808 77.6458C60.5511 76.5924 60.4447 75.7837 60.3277 73.2832C60.2107 70.921 60.0831 70.1016 59.6469 69.0376C58.8705 67.1223 57.0728 65.5262 55.105 65.0154C54.286 64.8026 52.8394 64.7813 52.031 64.9622C50.01 65.4411 48.1804 67.0052 47.3401 69.0057C46.8934 70.0697 46.7444 71.0274 46.6168 73.6024C46.4998 75.8156 46.3083 77.1989 46.0105 77.9012C45.9148 78.1459 45.8722 78.4226 45.9148 78.6141C46.0211 79.1036 47.2656 80.2953 48.1911 80.7954L48.9675 81.2317L47.7018 81.8808C46.2764 82.6043 45.7446 83.0619 45.3404 83.9131L45.0638 84.4984L45.0319 87.9779L45 91.468L45.2659 91.734C45.6063 92.0745 46.0105 92.0745 46.3402 91.734L46.6062 91.4786V88.2332C46.6062 86.1902 46.6487 84.8814 46.7232 84.6899C46.9146 84.1685 47.2656 83.9131 48.7654 83.1577L50.2333 82.4128L50.8928 83.0193C51.6799 83.7323 52.1054 83.9663 52.8819 84.1047C54.0626 84.3175 54.988 83.9983 56.073 82.9981L56.7218 82.3915L57.1473 82.5831C57.4558 82.732 57.5515 82.8278 57.4983 82.9448C56.9452 84.243 56.9877 83.9451 56.9452 87.6799C56.9026 91.4148 56.9346 91.6595 57.4132 91.883C57.7855 92.0426 57.9238 92.0319 58.2322 91.7872L58.5088 91.5637L58.5407 87.9779L58.5726 84.392L58.8811 83.828C59.0513 83.5301 59.3598 83.147 59.5512 82.9981C59.7533 82.8384 61.0723 82.2958 62.487 81.785C63.9017 81.2636 65.1356 80.8167 65.2419 80.7742C65.3802 80.721 65.6674 81.0827 66.5928 82.4554C67.2417 83.413 67.9011 84.2962 68.0607 84.392C68.4649 84.658 69.252 84.7218 69.6456 84.5197C69.8158 84.4239 70.2625 84.0408 70.6455 83.6578C71.0177 83.2747 71.3688 82.9555 71.4113 82.9555C71.4539 82.9555 71.4964 84.8921 71.4964 87.2543V91.5637L71.773 91.7765C71.9325 91.9042 72.124 92 72.1984 92C72.5069 92 72.8792 91.734 72.9856 91.436C73.0494 91.2339 73.0919 89.6059 73.0919 87.0202V82.9236L73.9216 83.7216C74.5492 84.3281 74.847 84.5516 75.1448 84.6048C75.6235 84.7005 76.1553 84.6048 76.4745 84.3813C76.6127 84.2856 77.2403 83.4237 77.8892 82.4554C78.8146 81.0721 79.1018 80.721 79.24 80.7742C79.3358 80.8167 80.5909 81.2743 82.0269 81.7957C84.8563 82.8278 85.2073 83.03 85.6434 83.8706C85.9093 84.3813 85.9093 84.4026 85.9625 87.9885L86.0157 91.5957L86.271 91.7978C86.6114 92.0745 86.9837 92.0532 87.3028 91.734L87.5687 91.468L87.5368 87.8182C87.5049 84.3494 87.4942 84.1472 87.2602 83.5939C87.1326 83.2747 86.8879 82.8172 86.7071 82.5724L86.388 82.1255L86.856 81.9659L87.3134 81.8063L88.3452 82.8384L89.3663 83.8599V87.6693V91.4786L89.6322 91.734C89.9194 92.0319 90.079 92.0532 90.4619 91.883C90.9406 91.6701 90.9618 91.4573 90.9618 87.5522V83.8599L91.9617 82.8597L92.9722 81.8595L94.7592 82.3596C96.9398 82.9874 97.3227 83.1683 97.6418 83.8067C97.8758 84.2643 97.8758 84.36 97.8758 87.8821V91.4786L98.1417 91.734C98.4715 92.0745 98.8757 92.0745 99.2054 91.734L99.4713 91.4786V87.8182C99.4713 83.7642 99.4288 83.445 98.8012 82.615C98.2587 81.9021 97.6312 81.5509 96.1101 81.104C95.3549 80.8912 94.472 80.6252 94.1529 80.5294L93.5679 80.3485L93.536 79.7101L93.5041 79.0717L94.2805 78.2736C94.706 77.8374 95.1953 77.2308 95.3549 76.9223C95.8016 76.0923 96.0675 74.8899 96.0675 73.7194C96.0675 72.8044 96.0994 72.6341 96.4611 71.7403L96.8653 70.772L96.8972 68.1757C96.9398 65.2282 96.9078 65.0367 96.2909 64.8558C96.025 64.7813 94.5571 64.7601 91.7064 64.7813C87.7602 64.8239 87.473 64.8452 86.8986 65.058C84.6223 65.8986 83.3139 67.8139 83.431 70.1442C83.4735 70.8571 83.5373 71.1444 83.8671 71.8254C84.2394 72.6022 84.2606 72.7192 84.2606 73.6875C84.2606 75.6028 84.8244 77.018 86.0902 78.3162C86.8028 79.0291 86.8135 79.061 86.8135 79.6037C86.8135 79.9655 86.7603 80.2102 86.6539 80.2953C86.5688 80.3698 86.0583 80.5507 85.5051 80.7103L84.5159 81.0083L83.4629 80.6146C82.8778 80.4017 81.8354 80.0187 81.1547 79.7739C80.1867 79.4228 79.8889 79.2632 79.8357 79.0929C79.7931 78.9653 79.4102 78.4652 78.9847 77.997L78.1976 77.1244V75.8263V74.5175L78.9847 73.6982C80.7717 71.8254 81.4738 69.9527 81.5695 66.835C81.6014 65.5049 81.6652 65.0154 81.8248 64.6004C82.3566 63.1852 82.3779 62.9831 82.4205 57.7479C82.4736 52.4914 82.463 52.3425 81.9631 52.1084C81.7716 52.0233 79.8463 51.9913 75.2938 52.002C70.0498 52.002 68.7521 52.0339 68.1564 52.1722ZM80.8568 57.5989C80.8568 61.919 80.793 62.6639 80.3675 63.845C80.1229 64.5047 80.0803 64.8345 80.0059 66.5158C79.8995 69.1546 79.6017 70.2612 78.6231 71.6445C77.1339 73.7833 74.8364 74.9857 72.2835 74.9963C70.0923 74.9963 68.2734 74.2196 66.7843 72.6341C65.1143 70.8784 64.4867 68.995 64.4761 65.7709C64.4761 64.9729 64.4229 64.6004 64.274 64.2706C63.8379 63.3023 63.6996 62.4404 63.689 60.6102C63.6783 59.461 63.7315 58.6524 63.8272 58.2693C64.3591 56.0773 66.0397 54.3748 68.2203 53.8002C68.9436 53.6193 69.4435 53.5981 74.9321 53.5981L80.8568 53.5874V57.5989ZM55.0837 66.686C56.307 67.101 57.3919 68.0799 57.9876 69.2823C58.4024 70.1336 58.5833 70.8784 58.679 72.1553L58.7535 73.2193L58.1046 72.5064C56.7112 70.9955 54.4562 70.0272 52.2011 69.9633L51.4672 69.942L50.5312 70.8997C49.744 71.6977 49.5845 71.9105 49.5845 72.1978C49.5845 72.6341 49.9142 72.9533 50.361 72.9533C50.6482 72.9533 50.829 72.8363 51.3927 72.2617C52.1692 71.4743 52.265 71.453 53.5733 71.7297C55.1369 72.0595 56.8175 73.1555 57.4451 74.2515C57.711 74.7197 57.7323 74.8261 57.6472 75.2198C57.3068 76.7627 55.7432 78.1459 54.0945 78.3694C51.6799 78.7099 49.6058 77.1032 49.2335 74.6239C49.1165 73.8259 48.8612 73.3789 48.5102 73.3789C48.4038 73.3789 48.2974 73.347 48.2762 73.2938C48.1804 73.1342 48.4144 70.7614 48.5846 70.2506C49.5419 67.3032 52.3607 65.7603 55.0837 66.686ZM95.3017 68.4523L95.2591 70.5592L94.8656 71.4317C94.5039 72.2298 94.472 72.3681 94.472 73.3045C94.472 73.8578 94.4188 74.5707 94.3656 74.8793C94.0253 76.7201 92.5786 78.1034 90.7491 78.3694C89.1429 78.5928 87.6751 77.9438 86.7071 76.5924C86.0902 75.7412 85.8562 74.8793 85.8562 73.5173C85.8562 72.4532 85.8349 72.3574 85.4626 71.5275C84.952 70.3996 84.8776 69.5696 85.2179 68.6545C85.6434 67.5373 86.6965 66.6647 87.8665 66.4626C88.1324 66.42 89.9301 66.3774 91.8553 66.3668L95.3442 66.3561L95.3017 68.4523ZM68.6351 75.8795C70.8901 76.9116 73.6982 76.8371 76.4213 75.6667C76.5915 75.5922 76.6127 75.6454 76.5808 76.3158L76.5489 77.05L74.4003 78.5184L72.241 79.9868L70.0923 78.5077L67.9331 77.0287L67.9011 76.3264C67.8799 75.9327 67.9118 75.6135 67.965 75.6135C68.0182 75.6135 68.3266 75.7305 68.6351 75.8795ZM49.4568 78.4013C50.0951 79.0185 50.127 79.0717 50.0951 79.4973L50.0631 79.9548L49.2973 79.5824C48.8825 79.3696 48.3187 79.0078 48.0528 78.7631L47.5741 78.3268L47.7975 77.4117L48.0315 76.486L48.4038 77.1244C48.6059 77.4649 49.0846 78.0395 49.4568 78.4013ZM59.1683 77.433L59.381 78.3268L58.8917 78.7844C58.6152 79.0291 58.0514 79.4015 57.6259 79.6037L56.8707 79.9655L56.8388 79.5399C56.8069 79.1249 56.8388 79.0717 57.5302 78.4013C57.9557 77.9863 58.3918 77.433 58.5726 77.0819C58.7428 76.752 58.9024 76.4966 58.9236 76.5073C58.9343 76.5286 59.0513 76.9435 59.1683 77.433ZM69.6243 80.1357L70.9858 81.0615L69.9966 82.0617C69.4541 82.6043 68.9861 83.03 68.9436 83.0087C68.9116 82.9874 68.3373 82.1468 67.6671 81.1466L66.4652 79.327L66.8694 78.9121L67.2736 78.4971L67.7629 78.8482C68.0288 79.0397 68.8691 79.6143 69.6243 80.1357ZM77.9849 79.3696C77.9849 79.4334 75.7511 82.8491 75.5703 83.0619C75.549 83.0832 75.0704 82.6469 74.5066 82.083L73.4961 81.0721L75.3789 79.7739L77.2722 78.4864L77.6232 78.8908C77.8147 79.1036 77.9742 79.3164 77.9849 79.3696ZM52.8075 79.9761C53.4457 80.0506 54.6795 79.9655 55.0944 79.8165C55.1795 79.7846 55.222 79.9016 55.222 80.2209C55.222 80.4656 55.2646 80.838 55.3284 81.0402C55.4241 81.37 55.4028 81.4339 55.1369 81.7105C54.1158 82.7959 53.2223 82.8597 52.1054 81.934C51.5629 81.4977 51.5204 81.4232 51.6161 81.1891C51.6693 81.0402 51.7119 80.6571 51.7119 80.3273C51.7119 79.8165 51.7331 79.7527 51.8927 79.8059C51.9991 79.8484 52.4033 79.9229 52.8075 79.9761ZM89.4195 79.9761C89.9939 80.0719 91.3022 79.9761 91.7383 79.8059C91.8873 79.7527 91.9192 79.8059 91.9192 80.157C91.9192 80.5294 91.8447 80.6465 91.015 81.4658L90.1109 82.3703L89.2174 81.4658C88.3665 80.5933 88.3345 80.5401 88.3771 80.157C88.4196 79.8272 88.4728 79.7633 88.6217 79.8165C88.7281 79.8484 89.0898 79.9229 89.4195 79.9761Z" fill="#146356"/>
<path d="M69.5292 59.2906C66.3913 59.5886 66.2211 59.6418 65.785 60.3015C65.5616 60.642 65.5084 60.8761 65.4553 61.6635C65.3702 63.1957 65.6042 63.8022 66.2637 63.8022C66.87 63.8022 66.9763 63.6107 67.0295 62.3551L67.0827 61.2059L67.3912 61.1315C68.157 60.9186 71.0715 60.8016 72.4224 60.9186C74.7625 61.1315 76.1027 61.5571 77.3366 62.4828C77.6876 62.7488 78.0812 62.951 78.2301 62.951C78.645 62.951 78.9747 62.6211 78.9747 62.2062C78.9747 61.9082 78.879 61.7593 78.4535 61.3655C77.4536 60.4505 75.8368 59.7695 73.9754 59.4928C72.933 59.3332 70.295 59.2161 69.5292 59.2906Z" fill="#146356"/>
<path d="M87.2504 69.1867C86.7292 69.4102 86.6654 70.2508 87.1441 70.5168C87.2611 70.5806 87.9418 70.6764 88.6545 70.719C90.0586 70.8254 91.2712 71.0275 92.0157 71.2936C92.6965 71.5383 93.0369 71.517 93.2922 71.1872C93.7602 70.5913 93.4198 70.0912 92.271 69.7081C90.8989 69.2506 87.8567 68.9313 87.2504 69.1867Z" fill="#146356"/>
<path d="M94.6942 85.5731C94.4815 85.8391 94.4708 85.9881 94.4708 88.6695V91.4786L94.7367 91.734C94.875 91.883 95.1197 92 95.2686 92C95.4175 92 95.6622 91.883 95.8004 91.734L96.0664 91.4786V88.6482V85.8178L95.8004 85.5624C95.4494 85.2007 94.9814 85.2113 94.6942 85.5731Z" fill="#146356"/>
<path d="M48.6382 86.637C48.4254 86.903 48.4148 87.052 48.4148 89.2014C48.4148 91.4785 48.4148 91.4785 48.6807 91.7339C49.0105 92.0744 49.4147 92.0744 49.7444 91.7339L50.0103 91.4785V89.1482C50.0103 86.8605 50.0103 86.8179 49.7657 86.5945C49.4147 86.2646 48.9147 86.2859 48.6382 86.637Z" fill="#146356"/>
<path d="M62.4236 87.1267C62.1045 87.3714 62.03 87.8502 62.03 89.4889C62.03 91.2659 62.1151 91.6915 62.5193 91.883C62.8916 92.0533 63.0193 92.032 63.349 91.7766L63.6256 91.5638V89.5102C63.6256 87.5097 63.6149 87.4565 63.3809 87.2331C63.1044 86.9777 62.6895 86.9351 62.4236 87.1267Z" fill="#146356"/>
<path d="M81.0908 87.2436C80.8674 87.4777 80.8568 87.5841 80.8568 89.4888C80.8568 91.4573 80.8568 91.4786 81.1227 91.7339C81.4099 92.0319 81.5695 92.0532 81.963 91.8829C82.4098 91.6807 82.4736 91.3296 82.4311 89.2866C82.3992 87.4564 82.3885 87.4032 82.1439 87.201C81.8035 86.9244 81.3674 86.9457 81.0908 87.2436Z" fill="#146356"/>
</svg>
