<svg width="80" height="80" viewBox="0 0 80 80" fill="none" xmlns="http://www.w3.org/2000/svg">
<path d="M37.5001 0.09375C33.2657 0.59375 29.7813 1.70312 26.3751 3.625C21.4844 6.375 17.0626 11.2812 14.8282 16.4219C14.0157 18.2969 13.2344 20.9219 12.8751 22.9688C12.4376 25.4062 12.4688 29.9062 12.9376 32.375C13.9219 37.625 16.1876 42.1406 19.8438 46.1719C20.4532 46.8594 21.3282 47.9062 21.7501 48.5156C23.2032 50.5312 24.4844 53.7031 24.7657 55.9688C24.8594 56.7656 24.8438 56.8594 24.5469 56.9531C24.0157 57.1094 23.0469 58.3594 22.7657 59.2344C22.3126 60.6406 22.4844 61.875 23.2969 63.0938L23.7501 63.7656L23.3751 64.2656C21.5938 66.625 22.8126 70.25 25.6563 71.0469C26.4688 71.2656 26.5469 71.3438 26.6407 71.8125C26.6876 72.1094 27.0626 72.9844 27.4532 73.7812C28.0313 74.9219 28.4376 75.4844 29.4376 76.4844C31.3282 78.3906 33.2969 79.4219 35.7969 79.8281C37.0938 80.0469 42.9063 80.0469 44.2032 79.8281C46.7032 79.4219 48.6719 78.3906 50.5625 76.4844C51.5625 75.4844 51.9688 74.9219 52.5469 73.7812C52.9375 72.9844 53.3125 72.1094 53.3594 71.8125C53.4532 71.3438 53.5313 71.2656 54.3438 71.0469C57.1875 70.25 58.4063 66.625 56.625 64.2656L56.25 63.7656L56.7032 63.0938C57.5157 61.875 57.6875 60.6406 57.2344 59.2344C56.9532 58.3594 55.9844 57.1094 55.4375 56.9375C55.1563 56.8594 55.125 56.7656 55.2188 56.0156C55.375 54.5938 56.0782 52.4844 56.9532 50.7031C57.7969 49.0312 58.4688 48.0938 60.9375 45.2656C65.7813 39.7188 68.1407 32.0469 67.3282 24.5C67.125 22.6406 66.3282 19.3281 65.7032 17.7344C64.9844 15.9219 63.4844 13.1406 62.375 11.5625C61.0313 9.65625 57.8438 6.46875 55.9375 5.125C52.5782 2.75 48.6875 1.125 44.6094 0.390625C43.2657 0.15625 38.6563 -0.046875 37.5001 0.09375ZM44.7188 2.95312C54.7657 4.96875 62.5469 12.7812 64.5625 22.8594C65.0625 25.3594 65.0625 29.6406 64.5625 32.125C63.5469 37.1875 61.625 40.875 57.7344 45.1562C55.2032 47.9375 53.4375 51.5469 52.7969 55.2344L52.625 56.25H46.9375H41.2501V49.3906V42.5312L44.2657 42.4531C46.6407 42.3906 47.5157 42.3125 48.4375 42.0625C53.3438 40.7031 56.9532 37.0938 58.3125 32.1875C58.5782 31.2344 58.6563 30.4219 58.7032 27.7812L58.7813 24.5469L58.375 24.1406L57.9532 23.7188L54.0938 23.7969C49.9219 23.8594 49.0313 24 46.9688 24.9219C44.5313 26 42.0782 28.1562 40.7813 30.3594C40.3907 31.0156 40.0469 31.5469 40.0001 31.5469C39.9532 31.5469 39.6094 31.0156 39.2188 30.3594C37.9219 28.1562 35.4688 26 33.0313 24.9219C30.9688 24 30.0782 23.8594 25.9063 23.7969L22.0469 23.7188L21.6563 24.125C21.2501 24.5156 21.2501 24.5312 21.2501 27.1562C21.2501 28.8281 21.3438 30.3125 21.4844 31.1719C22.4532 36.75 27.0001 41.2969 32.5782 42.2656C33.4063 42.4062 34.8907 42.5 36.3438 42.5H38.7501V49.375V56.25H33.0782H27.3907L27.1251 54.875C26.3438 50.8906 24.7813 47.9531 21.4376 44.2031C18.3282 40.7031 16.3594 36.75 15.4376 32.125C14.9376 29.6406 14.9376 25.1875 15.4532 22.8125C16.1876 19.375 17.5313 16.1719 19.4219 13.3594C20.7813 11.3594 24.0157 8.15625 26.0157 6.84375C29.5157 4.53125 33.1563 3.15625 37.0938 2.65625C38.7969 2.4375 42.9688 2.60938 44.7188 2.95312ZM30.8594 26.7656C32.6407 27.3594 33.9532 28.1719 35.3907 29.6094C37.5157 31.7344 38.5313 33.9844 38.7032 36.9531L38.7969 38.5156L38.4219 38.1875C38.2188 38.0156 36.8907 36.8594 35.4688 35.6094C30.4844 31.2344 30.5001 31.25 29.9844 31.25C29.3594 31.25 28.7501 31.8594 28.7501 32.4844C28.7501 33.0938 28.8438 33.1875 32.6563 36.4844C34.4219 38.0156 36.0313 39.4375 36.2501 39.6562L36.6407 40.0312L34.7657 39.9531C31.5001 39.8125 29.3438 38.875 27.1094 36.6406C25.6719 35.2031 24.8594 33.8906 24.2813 32.1094C23.9376 31.0781 23.8594 30.4531 23.7813 28.5312L23.7032 26.2188L26.6563 26.2812C29.2969 26.3594 29.7344 26.4062 30.8594 26.7656ZM56.2188 28.5469C56.1407 30.4531 56.0625 31.0781 55.7188 32.1094C55.1407 33.8906 54.3282 35.2031 52.8907 36.6406C50.6563 38.875 48.5 39.8125 45.2344 39.9531C43.3594 40.0312 43.3594 40.0312 43.6719 39.7188C43.8438 39.5469 45.4219 38.1719 47.1875 36.6406C51.0782 33.2812 51.25 33.0938 51.25 32.4844C51.25 31.8594 50.6407 31.25 50 31.25C49.5469 31.25 48.375 32.2188 41.5782 38.1875L41.2032 38.5156L41.2969 36.9531C41.4688 33.9844 42.5001 31.6875 44.5938 29.5938C45.9219 28.2656 47.2344 27.4219 48.8438 26.875C50.2188 26.3906 51.0782 26.2812 53.8125 26.2656L56.2969 26.25L56.2188 28.5469ZM54.4063 59.3438C54.8438 59.7812 54.9219 59.9531 54.9219 60.625C54.9219 61.2969 54.8438 61.4688 54.4063 61.9062L53.9063 62.4219H40.0001H26.0938L25.5938 61.9062C25.1563 61.4688 25.0782 61.2969 25.0782 60.6406C25.0782 59.8281 25.4844 59.1875 26.1719 58.8906C26.3438 58.8281 32.6563 58.7812 40.1876 58.7969L53.9063 58.8281L54.4063 59.3438ZM54.4063 65.5938C54.8438 66.0312 54.9219 66.2031 54.9219 66.875C54.9219 67.5469 54.8438 67.7188 54.4063 68.1562L53.9063 68.6719H40.0001H26.0938L25.5938 68.1562C25.1563 67.7188 25.0782 67.5469 25.0782 66.8906C25.0782 66.0781 25.4844 65.4375 26.1719 65.1406C26.3438 65.0781 32.6563 65.0312 40.1876 65.0469L53.9063 65.0781L54.4063 65.5938ZM50.7657 71.6719C50.0313 73.625 48.1719 75.6875 46.375 76.5469C44.6719 77.3594 43.7344 77.5 39.9844 77.5C36.2501 77.5 34.9688 77.2969 33.3907 76.4531C31.7501 75.5625 29.9844 73.5781 29.3282 71.9062L29.0626 71.25H40.0001H50.9375L50.7657 71.6719Z" fill="#146356"/>
<path d="M5.82815 7.0625C5.64065 7.15625 5.40627 7.42188 5.2969 7.67188C4.9219 8.57812 5.21877 8.85938 8.50002 10.7656C10.1563 11.7188 11.6563 12.5 11.8594 12.5C12.7188 12.5 13.3125 11.6094 12.9844 10.8125C12.7969 10.3438 12.7031 10.2969 8.9844 8.14062C6.7969 6.875 6.46877 6.75 5.82815 7.0625Z" fill="#146356"/>
<path d="M70.1719 8.64062C67.0469 10.4688 66.75 10.7188 66.9531 11.5312C67.0781 12.0469 67.5937 12.5 68.0781 12.5C68.3281 12.5 69.7031 11.7969 71.5 10.7656C74.7812 8.85938 75.0781 8.57812 74.7031 7.67188C74.5156 7.23438 73.9687 6.875 73.4687 6.875C73.3281 6.875 71.8437 7.67188 70.1719 8.64062Z" fill="#146356"/>
<path d="M0.390625 26.6406C0.140625 26.875 0 27.2031 0 27.5C0 27.7969 0.140625 28.125 0.390625 28.3594L0.765625 28.75H4.375H7.98438L8.35938 28.3594C8.875 27.8594 8.875 27.1406 8.35938 26.6406L7.98438 26.25H4.375H0.765625L0.390625 26.6406Z" fill="#146356"/>
<path d="M71.6406 26.6406C71.3906 26.875 71.25 27.2031 71.25 27.5C71.25 27.7969 71.3906 28.125 71.6406 28.3594L72.0156 28.75H75.625H79.2344L79.6094 28.3594C79.8594 28.125 80 27.7969 80 27.5C80 27.2031 79.8594 26.875 79.6094 26.6406L79.2344 26.25H75.625H72.0156L71.6406 26.6406Z" fill="#146356"/>
<path d="M8.48432 44.25C5.21869 46.1406 4.93744 46.4219 5.29682 47.3281C5.48432 47.7812 6.03119 48.125 6.53119 48.125C6.76557 48.125 8.82807 46.9844 11.9843 45.1094C12.8437 44.6094 13.2343 44 13.0468 43.4375C12.8906 42.9531 12.3281 42.5 11.8906 42.5C11.6562 42.5 10.1406 43.2812 8.48432 44.25Z" fill="#146356"/>
<path d="M67.3907 42.8125C66.9376 43.2344 66.8126 43.6875 67.0313 44.2031C67.1719 44.5469 67.8907 45.0469 70.2188 46.3906C71.875 47.3438 73.3438 48.125 73.4844 48.125C73.9688 48.125 74.5157 47.7656 74.7032 47.3281C75.0625 46.4219 74.7813 46.1406 71.5 44.25C69.8438 43.2812 68.3126 42.5 68.0938 42.5C67.8907 42.5 67.5626 42.6406 67.3907 42.8125Z" fill="#146356"/>
</svg>
