<svg width="80" height="80" viewBox="0 0 80 80" fill="none" xmlns="http://www.w3.org/2000/svg">
<path d="M37.6563 0.09375C37.4376 0.125 36.6407 0.234375 35.8594 0.328125C31.1719 0.90625 25.8126 3.20312 21.9532 6.29688C20.7657 7.26562 18.5157 9.48438 17.5157 10.7031C14.6563 14.1719 12.4532 18.7656 11.5782 23.0625C10.9844 26.0312 10.9063 27.6406 10.9688 37.7812L11.0157 47.5H8.28131C5.87506 47.5 5.46881 47.5469 4.84381 47.8281C2.87506 48.7188 1.34381 51.5938 0.437557 56.1406C0.125057 57.6562 0.0781817 58.3594 0.0938067 61.4062C0.0938067 66.2656 0.640682 69.1094 2.10943 72.125C2.90631 73.7656 4.25006 75.1719 5.28131 75.4531C6.07818 75.6875 15.8282 75.6719 16.6251 75.4531C17.6251 75.1719 18.9532 73.7812 19.7657 72.1406C20.1563 71.375 20.4688 70.6562 20.4688 70.5312C20.4688 70.4219 21.4688 71.3281 22.7032 72.5625C25.8907 75.7656 28.6251 77.4844 32.5001 78.75C35.2813 79.6562 36.9844 79.9219 40.0782 79.9219C43.1407 79.9062 45.1876 79.5781 47.8282 78.6562C51.6094 77.3438 54.2188 75.6562 57.3126 72.5469C58.5313 71.3125 59.5313 70.4062 59.5313 70.5312C59.5313 70.6562 59.8438 71.375 60.2344 72.1562C61.0469 73.7656 62.3907 75.1875 63.4063 75.4531C63.7501 75.5625 66.0626 75.625 69.1876 75.625C73.3751 75.625 74.4844 75.5781 74.9219 75.4062C77.4063 74.3594 79.2344 70.4375 79.8438 64.8438C80.0938 62.6875 79.9688 58.2969 79.6094 56.3594C78.8126 51.9844 77.2032 48.8438 75.2657 47.9062L74.4219 47.4844L68.8751 47.5312L63.3282 47.5781L62.5313 48.125C61.2188 49.0156 60.1563 50.6875 59.3907 53L59.0313 54.0625H57.7657C56.2344 54.0625 55.6251 54.3125 54.9063 55.2656C52.7813 58.0625 52.7813 65.0625 54.9063 67.8594C55.5469 68.7188 56.2501 69.0625 57.3907 69.0625C57.8751 69.0625 58.2813 69.125 58.2813 69.2188C58.2813 69.2969 57.3438 70.3125 56.2188 71.4531C52.6094 75.0781 49.2344 76.9531 44.3751 77.9844C42.2188 78.4531 38.1563 78.4844 36.0157 78.0781C31.1563 77.1406 27.4063 75.0938 23.7969 71.4531C22.6563 70.3125 21.7188 69.2969 21.7188 69.2188C21.7188 69.125 22.1251 69.0625 22.6251 69.0625C23.7501 69.0625 24.4532 68.7188 25.0938 67.8594C27.2188 65.0625 27.2188 58.0625 25.0938 55.2656C24.3751 54.3125 23.7657 54.0625 22.2344 54.0625H20.9688L20.6251 53C20.0313 51.2188 19.1251 49.6406 18.1407 48.7031C17.0469 47.6562 16.5626 47.5 14.3594 47.5H12.7032L12.5938 46.2969C12.5469 45.6406 12.5001 43.9531 12.5001 42.5469V39.9844L13.2501 40.9062C16.1094 44.4688 20.7032 45.8594 24.9532 44.4531C26.2344 44.0312 27.0938 43.5312 29.3907 41.8594C32.2969 39.75 36.3594 38.4375 40.0001 38.4375C43.7188 38.4375 47.9532 39.8281 50.7969 42C52.5157 43.2969 53.7657 44.0156 55.1094 44.4844C56.1876 44.8594 56.5626 44.9062 58.3594 44.9062C60.1563 44.9062 60.5469 44.8594 61.6407 44.4844C63.7657 43.7812 65.7813 42.3125 67.0469 40.5781L67.5001 39.9531V42.5469V45.1562H68.2969H69.0782L69.0157 35.5C68.9532 25.0781 68.9376 24.7812 68.0313 21.4062C65.7032 12.75 59.0938 5.39062 50.6876 2.0625C48.8751 1.34375 46.7813 0.75 44.7657 0.390625C43.4219 0.15625 38.4844 -0.0625 37.6563 0.09375ZM42.8907 1.71875C47.5938 2.26562 52.1094 3.98438 55.9376 6.6875C57.8438 8.03125 61.0313 11.2188 62.3751 13.125C64.4688 16.0781 66.1876 20 66.8594 23.2969C67.4376 26.1562 67.4376 26.1719 66.6876 24.7656C64.7344 21.1094 61.5626 17.9531 57.9688 16.1094C56.1094 15.1562 54.7344 14.6562 52.6407 14.1875C51.0157 13.8281 50.9688 13.8281 40.0782 13.8281C30.1876 13.8281 29.0157 13.8594 27.7657 14.1094C21.4532 15.3906 16.3907 19.125 13.3594 24.7031C12.5626 26.1719 12.5626 26.1719 13.1407 23.2969C13.8126 20 15.5313 16.0781 17.6251 13.125C18.9688 11.2188 22.1563 8.03125 24.0626 6.6875C29.5313 2.8125 36.4688 0.984375 42.8907 1.71875ZM52.2657 15.6875C56.2969 16.6562 59.2032 18.25 61.9532 21C64.8594 23.9219 66.6563 27.5 67.2813 31.5625C67.7032 34.4531 67.5313 36.1719 66.5469 38.2656C66.0469 39.3281 65.7032 39.8125 64.7188 40.7656C62.7344 42.7188 60.5626 43.5469 57.8907 43.3906C55.6719 43.25 54.4219 42.7344 52.0313 40.9531C49.5626 39.1094 46.5626 37.7969 43.4219 37.1719C41.8751 36.8594 37.8438 36.9062 36.2501 37.2344C33.2188 37.8906 30.3907 39.1406 27.9688 40.9531C25.5782 42.7344 24.3126 43.25 22.1094 43.3906C19.4376 43.5469 17.2657 42.7188 15.2969 40.7812C12.8438 38.375 12.1094 35.6875 12.7344 31.5156C13.9844 23.1719 20.7032 16.6094 29.0938 15.4688C29.6407 15.4062 34.8282 15.3594 40.6251 15.375C49.8751 15.4219 51.3126 15.4531 52.2657 15.6875ZM7.00006 49.2812C10.8438 51.2969 12.2188 63.5312 9.39068 70.5938L9.06256 71.4219L9.71881 71.7031C10.5469 72.0625 10.6094 72.0156 11.1719 70.3281C12.7969 65.4375 12.9219 58.8281 11.4844 53.8281C11.0313 52.2656 10.1876 50.3438 9.59381 49.5781L9.20318 49.0625H12.5782C16.2813 49.0625 16.4063 49.0938 17.2813 50.0312C19.0626 51.9375 20.3126 56.6719 20.3126 61.5625C20.3126 67.3125 18.5938 72.7031 16.3907 73.8438C15.7501 74.1719 6.12506 74.1719 5.48443 73.8438C3.92193 73.0312 2.54693 70.0156 1.85943 65.8594C1.54693 64 1.59381 58.9219 1.93756 56.9531C2.65631 52.9062 4.06256 49.9219 5.54693 49.2812C6.15631 49.0156 6.48443 49.0156 7.00006 49.2812ZM70.4063 49.5781C69.4063 50.875 68.4219 53.6562 67.8751 56.6406C67.5001 58.7656 67.4844 64.25 67.8594 66.4062C68.3594 69.2969 69.4063 72.25 70.4063 73.5469L70.7969 74.0625H67.4219C64.7969 74.0625 63.9532 74.0156 63.6094 73.8438C62.4376 73.2344 61.2344 71.1562 60.5782 68.5938C59.9219 66.0781 59.7813 64.7812 59.7813 61.5625C59.7813 59.7656 59.8594 58 59.9844 57.2656C60.6563 53.1719 61.9376 50.3125 63.5157 49.3438C63.9376 49.0938 64.3594 49.0625 67.3907 49.0625H70.7969L70.4063 49.5781ZM74.4219 49.2812C76.0001 49.9375 77.5469 53.4062 78.1563 57.6094C78.4063 59.375 78.4063 63.75 78.1563 65.5156C77.3594 71.1094 75.0313 74.8906 73.0157 73.8594C71.8126 73.2344 70.6094 71.1719 69.9532 68.5938C69.2969 66.0781 69.1563 64.7812 69.1563 61.5625C69.1563 59.7656 69.2344 58 69.3594 57.2656C70.0313 53.1719 71.3126 50.3125 72.8907 49.3438C73.4532 49.0156 73.7501 49 74.4219 49.2812ZM23.8282 56.1562C25.5782 58.4531 25.5782 64.6719 23.8282 66.9688C23.4376 67.4844 23.3751 67.5 22.3594 67.5H21.3126L21.5157 66.3594C21.9532 63.8438 21.9376 59.7656 21.4688 56.3594L21.3594 55.625H22.3907C23.3751 55.625 23.4376 55.6406 23.8282 56.1562ZM58.4844 56.75C58.0469 59.2812 58.0626 63.3594 58.5313 66.75L58.6407 67.5H57.6094C56.6251 67.5 56.5626 67.4844 56.1719 66.9688C54.4219 64.6719 54.4219 58.4531 56.1719 56.1562C56.5626 55.6406 56.6251 55.625 57.6407 55.625H58.6876L58.4844 56.75Z" fill="#146356"/>
<path d="M29.3126 18.6093C22.9064 19.5625 17.7814 24.1718 16.1407 30.4531C15.6095 32.4687 15.547 35.3281 16.0157 36.4375C16.7814 38.2187 18.0939 39.4531 19.8282 40C21.8907 40.6562 23.7032 40.2656 25.7032 38.7343C30.2657 35.25 35.5782 33.5468 41.0157 33.7968C45.5157 34.0156 49.922 35.5468 53.4532 38.1406C54.2657 38.7343 55.3751 39.4531 55.9376 39.7343C56.8751 40.1875 57.0782 40.2343 58.4376 40.2343C59.7814 40.2343 60.0157 40.1875 60.9689 39.7187C62.1876 39.125 63.2814 38 63.8907 36.7187C64.2657 35.9375 64.297 35.6875 64.297 33.9062C64.297 32.5156 64.2032 31.6093 64.0001 30.7812C62.4532 24.6562 58.1095 20.3437 51.8751 18.7968C51.0001 18.5781 49.422 18.5312 40.547 18.5C34.8751 18.4843 29.8126 18.5312 29.3126 18.6093ZM51.9064 20.4218C54.6876 21.2031 56.7657 22.4062 58.6095 24.25C61.2657 26.9375 62.7189 30.3593 62.7345 33.9062C62.7345 35.2968 62.6876 35.6406 62.3907 36.1875C61.8595 37.1875 61.2814 37.7968 60.4064 38.25C59.7345 38.5937 59.4064 38.6718 58.3595 38.6718C56.9064 38.6718 56.5626 38.5156 54.6407 37.0625C46.1251 30.6093 33.8751 30.6093 25.3595 37.0625C23.4532 38.5156 23.0939 38.6718 21.6407 38.6718C20.547 38.6718 20.2814 38.6093 19.5626 38.2031C18.6407 37.7031 18.1407 37.1718 17.6095 36.1875C17.3126 35.6406 17.2657 35.3125 17.2814 33.8281C17.3282 27.9375 21.297 22.6562 27.172 20.7031C29.1564 20.0468 29.7814 20.0156 40.4689 20.0468C50.4532 20.0937 50.7345 20.0937 51.9064 20.4218Z" fill="#146356"/>
<path d="M5.3126 54.3281C3.6251 55.2031 2.51573 58.5781 2.70323 62.2656C2.9376 66.8281 4.71885 69.6406 6.9376 68.9062C9.98448 67.9062 10.8751 58.9219 8.28135 55.3281C7.4376 54.1719 6.34385 53.7969 5.3126 54.3281ZM6.95323 56.1562C8.70323 58.4531 8.70323 64.6718 6.95323 66.9687C6.4376 67.6406 6.0626 67.6406 5.54698 66.9687C4.1251 65.1093 3.79698 60.5312 4.84385 57.5312C5.20323 56.5 5.84385 55.625 6.2501 55.625C6.40635 55.625 6.73448 55.8594 6.95323 56.1562Z" fill="#146356"/>
<path d="M72.8126 54.3281C71.1251 55.2031 70.0157 58.5781 70.2032 62.2656C70.4376 66.8281 72.2188 69.6406 74.4376 68.9062C77.4845 67.9062 78.3751 58.9219 75.7813 55.3281C74.9376 54.1719 73.8438 53.7969 72.8126 54.3281ZM74.4532 56.1562C76.2032 58.4531 76.2032 64.6718 74.4532 66.9687C73.9376 67.6406 73.5626 67.6406 73.047 66.9687C71.6251 65.1093 71.297 60.5312 72.3438 57.5312C72.7032 56.5 73.3438 55.625 73.7501 55.625C73.9063 55.625 74.2345 55.8594 74.4532 56.1562Z" fill="#146356"/>
<path d="M37.6563 47.7188C35.4532 48.1875 33.5782 49.0938 31.9845 50.4531C26.3751 55.2031 26.0001 63.6406 31.1876 68.8125C33.6251 71.25 36.4688 72.4219 40.0001 72.4219C43.5313 72.4219 46.3751 71.25 48.8126 68.8125C51.2501 66.375 52.422 63.5312 52.422 60C52.422 57.2812 51.8595 55.3438 50.4845 53.25C48.7188 50.5469 46.2032 48.75 42.9688 47.8594C41.7501 47.5312 38.9063 47.4531 37.6563 47.7188ZM39.2188 50.375V51.6875L38.7501 51.7969C38.4063 51.875 38.2813 51.9688 38.3438 52.1562C38.3751 52.3125 38.4532 52.6562 38.5157 52.9375C38.5938 53.3594 38.672 53.4375 38.922 53.3594C39.1876 53.2656 39.2188 53.3438 39.2188 54.3438V55.4375L38.7032 55.5312C37.9376 55.6719 36.797 56.4531 36.2501 57.2031C35.6407 58.0625 35.2501 59.3594 35.3438 60.3125L35.422 61.0625L34.5001 61.4688C33.8595 61.7344 33.5626 61.7969 33.5157 61.6719C33.4845 61.5625 33.422 61.2812 33.3595 61.0312C33.2813 60.6719 33.2032 60.6094 32.922 60.6875C32.7345 60.7344 32.3751 60.7812 32.1407 60.7812C31.797 60.7812 31.7188 60.8438 31.7813 61.0469C31.8282 61.2031 31.9063 61.5781 31.9532 61.8906L32.0626 62.4531L30.8595 62.9531C30.2032 63.2344 29.6251 63.4219 29.5938 63.3906C29.4376 63.2344 29.0626 60.8438 29.0626 60C29.0626 58.4062 29.4688 56.75 30.2501 55.1562C30.8595 53.9219 31.2188 53.4375 32.3282 52.3281C33.4376 51.2188 33.922 50.8594 35.1563 50.25C36.3907 49.6406 38.0001 49.1562 39.0313 49.0781C39.172 49.0625 39.2188 49.4219 39.2188 50.375ZM42.0782 49.2812C47.0938 50.25 50.9376 54.8906 50.9376 60C50.9376 60.7969 50.547 63.25 50.3907 63.4062C50.3595 63.4375 49.047 62.9219 47.4688 62.2656L44.5782 61.0625L44.6563 60.3281C44.7501 59.3594 44.3595 58.0625 43.7501 57.2031C43.2032 56.4531 42.0626 55.6719 41.297 55.5312L40.7813 55.4375V52.25C40.7813 50.5 40.8126 49.0625 40.8438 49.0625C40.8751 49.0625 41.4376 49.1562 42.0782 49.2812ZM41.7188 57.4062C42.6407 58.0156 43.047 58.7969 43.047 60C43.047 61.2188 42.6407 61.9844 41.672 62.625C40.797 63.2031 39.2813 63.2344 38.3907 62.6719C37.2032 61.9375 36.6563 60.4844 37.0157 59.0938C37.2345 58.2969 38.1876 57.2656 38.9376 57.0469C39.7657 56.7969 41.047 56.9531 41.7188 57.4062ZM37.9376 64.1719C39.2032 64.7969 40.797 64.7969 42.0782 64.1719C42.5626 63.9219 43.2032 63.4531 43.4688 63.125L43.9688 62.5312L44.7657 62.8438C45.1876 63.0156 45.672 63.2812 45.8282 63.4531C46.2657 63.9219 47.047 64.2812 47.1876 64.0625C47.2657 63.9375 47.6407 64.0312 48.5001 64.3906C49.1563 64.6562 49.6876 64.9375 49.6876 65C49.6876 65.3438 48.3282 67.0938 47.3751 68C45.4688 69.7969 42.5938 70.9375 40.0001 70.9375C37.4063 70.9375 34.5313 69.7969 32.6251 68C31.6563 67.0938 30.3126 65.3438 30.3126 65C30.3126 64.9062 31.4845 64.375 33.0313 63.7656C33.1251 63.7344 33.1095 63.8125 33.0157 63.9375C32.8438 64.125 32.8907 64.2812 33.297 64.8438L33.7813 65.5156L34.3282 64.9531L34.8907 64.4062L34.5313 63.9062C34.1251 63.3281 34.172 63.25 35.2345 62.8438L36.0157 62.5312L36.5313 63.1406C36.8126 63.4688 37.4376 63.9219 37.9376 64.1719Z" fill="#146356"/>
<path d="M36.1719 52.6875C36 52.7813 35.7031 52.9531 35.5 53.0781L35.1562 53.2969L35.5781 53.875C35.8125 54.1875 36.0156 54.4688 36.0312 54.5C36.0781 54.5938 37.1875 53.875 37.1875 53.75C37.1875 53.5156 36.7188 52.5 36.5938 52.5C36.5312 52.5 36.3438 52.5938 36.1719 52.6875Z" fill="#146356"/>
<path d="M33.375 55.0469C33.1406 55.3437 32.9688 55.6562 32.9688 55.75C32.9688 55.8437 33.25 56.0781 33.5781 56.25L34.1875 56.5469L34.6094 56L35.0312 55.4375L34.5156 55C34.2188 54.75 33.9375 54.5469 33.875 54.5312C33.8125 54.5312 33.5938 54.7656 33.375 55.0469Z" fill="#146356"/>
<path d="M31.9219 58.2813L31.7656 59.0469L32.4531 59.1563C33.25 59.2656 33.3594 59.1875 33.5 58.4219C33.5938 57.875 33.5781 57.8594 32.9844 57.6875C32.1094 57.4219 32.0938 57.4219 31.9219 58.2813Z" fill="#146356"/>
<path d="M41.7657 52.75C41.6095 53.4063 41.6251 53.4688 41.9376 53.5782C42.922 53.9532 42.9376 53.9532 43.2813 53.2969C43.4532 52.9532 43.5938 52.6407 43.5938 52.5938C43.5938 52.5 42.3751 52.0313 42.1251 52.0313C42.0157 52.0313 41.8595 52.3438 41.7657 52.75Z" fill="#146356"/>
<path d="M44.6407 53.9844C44.4064 54.2812 44.2189 54.5781 44.2189 54.6562C44.2189 54.7187 44.422 54.9844 44.6876 55.2344L45.1407 55.6719L45.6876 55.2187C45.9845 54.9687 46.2345 54.7344 46.2345 54.6875C46.2501 54.6406 45.9845 54.3437 45.6564 54.0156L45.0782 53.4375L44.6407 53.9844Z" fill="#146356"/>
<path d="M46.5625 56.4219C46.2656 56.6094 46 56.7656 45.9688 56.7969C45.9531 56.8125 46.0625 57.1094 46.2031 57.4531L46.4844 58.0938L47.2188 57.875L47.9531 57.6562L47.6719 56.9219C47.5156 56.5156 47.3281 56.1719 47.25 56.1406C47.1719 56.1094 46.8594 56.25 46.5625 56.4219Z" fill="#146356"/>
<path d="M46.8282 59.4844C46.7657 59.5313 46.7189 59.8906 46.7189 60.2656C46.7189 60.8906 46.7501 60.9375 47.1564 60.9375C47.3907 60.9375 47.7345 60.9844 47.9376 61.0313C48.2657 61.125 48.2814 61.0938 48.2814 60.25V59.375H47.6095C47.2345 59.375 46.8751 59.4219 46.8282 59.4844Z" fill="#146356"/>
<path d="M44.3126 65.1406L43.8751 65.5937L44.297 66.1562C44.5314 66.4687 44.7657 66.7188 44.8282 66.7188C44.8907 66.7188 45.172 66.4687 45.4689 66.1719L46.0001 65.625L45.547 65.1562C44.9845 64.5781 44.8595 64.5781 44.3126 65.1406Z" fill="#146356"/>
<path d="M35.5156 65.9843C35.3125 66.2656 35.1562 66.5468 35.1562 66.6093C35.1562 66.7343 36.4062 67.5468 36.4844 67.4687C36.5 67.4375 36.6719 67.125 36.8594 66.7656L37.1875 66.125L36.625 65.7968C36.3281 65.6093 36.0312 65.4687 35.9688 65.4687C35.9062 65.4687 35.7031 65.7031 35.5156 65.9843Z" fill="#146356"/>
<path d="M41.7501 66.4532C41.4063 66.5625 41.2657 66.6875 41.3126 66.8594C41.3595 67 41.422 67.3438 41.4845 67.6094C41.5938 68.1563 41.7345 68.1719 42.7813 67.7969C43.1876 67.6407 43.2032 67.5626 42.8907 66.8125C42.6407 66.2188 42.5626 66.1875 41.7501 66.4532Z" fill="#146356"/>
<path d="M38.3282 67.2969C38.2344 67.7031 38.1563 68.0625 38.1719 68.0781C38.2032 68.0937 38.5782 68.1562 39.0313 68.2187L39.8438 68.3281V67.5156C39.8438 66.7969 39.8125 66.7187 39.5 66.7187C39.2969 66.7187 39 66.6719 38.8125 66.625C38.5313 66.5469 38.4688 66.6406 38.3282 67.2969Z" fill="#146356"/>
</svg>
