<svg width="144" height="144" viewBox="0 0 144 144" fill="none" xmlns="http://www.w3.org/2000/svg">
<circle cx="71.4999" cy="72.4999" r="70.4999" stroke="#A3DA8D" stroke-width="2"/>
<path d="M70.2695 2.01074C84.713 1.75863 98.8854 5.94954 110.869 14.0164C122.852 22.0833 132.069 33.6367 137.27 47.1133C142.472 60.5899 143.409 75.3393 139.953 89.3655C136.497 103.392 128.816 116.018 117.949 125.535" stroke="#146356" stroke-width="4" stroke-linecap="round"/>
<path d="M42.6723 52.1476C42.0978 52.4799 41.9511 53.1197 42.3422 53.5872C42.4645 53.7595 44.3224 54.6085 47.1948 55.8266C49.7494 56.9093 51.8518 57.8075 51.864 57.8321C51.9007 57.869 46.2903 74.0489 46.217 74.1227C46.1925 74.1473 45.4958 73.9504 44.6646 73.6674C43.8335 73.3844 43.039 73.163 42.8801 73.163C42.4767 73.163 42 73.6921 42 74.1227C42 74.7748 42.3056 74.9717 44.4446 75.6853C46.5959 76.4112 47.1337 76.4851 47.4759 76.1406C47.5982 76.0175 47.9282 75.2301 48.2215 74.3934C48.5149 73.5444 48.7716 72.8431 48.7838 72.8185C48.8205 72.7816 50.2995 73.4952 50.4095 73.5936C50.4339 73.6182 50.2628 73.9135 50.0306 74.258C48.9549 75.833 49.1994 77.4694 50.7273 78.9213C51.3873 79.5488 52.2307 80.0409 52.6585 80.0532C52.8296 80.0532 52.8541 80.164 52.793 80.9761C52.6952 82.2311 52.9274 82.8217 53.9419 83.8921C55.0176 84.9995 55.6532 85.2825 56.9366 85.184C57.8656 85.1102 57.89 85.1102 57.89 85.3809C57.89 86.2053 59.4912 87.9894 60.5302 88.3462C61.178 88.5677 62.1192 88.6046 62.5837 88.4323C62.8526 88.3216 62.8892 88.3462 62.9748 88.703C63.1093 89.3674 63.4637 89.9334 64.2093 90.6593C65.1016 91.5329 65.7861 91.8651 66.7517 91.8651C67.4973 91.8651 68.353 91.5698 68.8052 91.1638C69.0008 90.9669 69.0863 90.9916 69.9542 91.4468C71.5921 92.2958 73.2544 92.1604 74.4645 91.09C75.0757 90.5486 75.6135 89.5766 75.6135 88.9983C75.6135 88.8137 75.6379 88.6661 75.6624 88.6661C75.6868 88.6661 76.0902 88.8506 76.5424 89.0598C77.3003 89.4289 77.4958 89.4659 78.4859 89.4659C79.476 89.4659 79.6471 89.4289 80.246 89.0967C81.2972 88.5184 81.9206 87.5956 82.055 86.4514C82.0917 86.1068 82.1284 85.8362 82.1406 85.8362C82.1528 85.8362 82.4462 85.9469 82.8006 86.0822C84.0841 86.5744 85.5386 86.2668 86.5409 85.2948C87.2865 84.5565 87.6165 83.8552 87.6899 82.8586L87.751 82.0342L88.3744 82.3541C89.3155 82.834 90.6356 82.8955 91.5157 82.4895C92.4691 82.0465 92.9091 81.6159 93.3614 80.7054C93.6914 80.0286 93.7525 79.758 93.7525 79.0812C93.7403 78.1953 93.4469 77.371 92.8969 76.645L92.5913 76.2513L92.848 74.984C92.9947 74.2949 93.1169 73.7167 93.1291 73.7044C93.1414 73.6921 93.2636 73.6551 93.398 73.6059C93.6181 73.5444 93.6914 73.6797 94.0703 74.7748C94.4981 76.0298 94.8281 76.4851 95.3048 76.4851C95.7327 76.4851 100.243 74.7133 100.524 74.4303C100.83 74.1104 100.879 73.5813 100.61 73.1999C100.255 72.6954 99.9007 72.7323 97.8961 73.4829C96.8694 73.8766 95.9893 74.1596 95.9527 74.1104C95.7938 73.9504 90.2934 57.9675 90.3789 57.8936C90.4278 57.8567 92.6402 56.9462 95.2926 55.8881C100.5 53.8087 100.756 53.661 100.622 52.9351C100.536 52.4676 100.145 52.123 99.7052 52.123C99.2529 52.123 88.6922 56.3925 88.3499 56.7125C88.0932 56.9462 88.0688 57.057 88.1299 57.6106L88.2032 58.2382L86.9687 58.5704C86.2842 58.7549 85.6608 58.9395 85.5753 58.9641C85.4897 59.001 85.2575 58.878 85.0375 58.7057C84.6097 58.3366 84.3407 58.2628 80.4294 57.4753C76.958 56.7863 73.7678 56.3064 72.5455 56.3064C71.7265 56.3064 71.5187 56.3556 70.6509 56.7863C70.1131 57.0447 69.0741 57.6353 68.3407 58.0905C66.764 59.0625 62.5959 61.8925 62.2048 62.237C62.0336 62.3969 61.8747 62.803 61.7403 63.4305C61.618 63.9472 61.1169 65.5222 60.628 66.9248C59.5279 70.0501 59.5157 70.2469 60.2979 70.9359C60.6035 71.2189 61.2147 71.625 61.6547 71.8341C63.5493 72.7692 66.0672 72.2525 67.3507 70.6529C67.8396 70.0377 68.0841 69.5948 68.5852 68.3152L68.9641 67.3309L71.0298 66.8756C72.8144 66.4819 73.1444 66.3711 73.3766 66.0881C73.5355 65.9159 73.6578 65.6329 73.6578 65.4606C73.6578 65.0669 73.1444 64.5501 72.7533 64.5501C72.5944 64.5501 71.5799 64.7347 70.5164 64.9685C69.453 65.2023 68.3896 65.4237 68.1452 65.4606C67.5585 65.5591 67.3873 65.7805 67.0084 66.9248C66.1772 69.4348 65.3094 70.333 63.7326 70.333C63.097 70.333 61.8014 69.8532 61.8014 69.6317C61.8014 69.5825 62.1803 68.4013 62.657 67.0109C63.1215 65.6206 63.5615 64.2671 63.6226 63.9965C63.7449 63.5289 63.8671 63.4182 66.7151 61.5233C70.8098 58.7795 71.5676 58.3612 72.4966 58.2997C73.56 58.2259 76.7258 58.7303 82.0795 59.8254C83.5829 60.133 83.754 60.2068 84.2552 60.6374C84.5485 60.8958 84.8908 61.105 85.0008 61.105C85.1108 61.105 86.0275 60.8835 87.0298 60.6005C88.0321 60.3298 88.8877 60.1453 88.9366 60.2068C89.0466 60.3175 92.9825 71.5881 92.9336 71.6373C92.9213 71.6619 92.628 71.7849 92.298 71.9326C91.4424 72.3017 91.1368 72.6216 91.1368 73.1384C91.1368 73.3844 91.0757 73.9258 91.0023 74.3565C90.8923 75.0086 90.8312 75.1316 90.6601 75.0701C89.8289 74.7502 84.9275 71.908 81.1994 69.5702C78.7181 68.0199 76.5424 66.728 76.3469 66.6787C76.0657 66.6295 75.919 66.691 75.6135 66.9863C75.2223 67.3801 75.1857 67.5523 75.3568 68.0322C75.5035 68.4259 83.3385 73.3106 87.531 75.6238C90.8801 77.4694 91.4057 77.8016 91.6501 78.2446C92.0535 79.0074 91.6746 80.2009 90.8923 80.6069C90.1834 80.9761 89.8534 80.8653 86.1131 79.0074C84.133 78.0231 82.4095 77.2233 82.2628 77.2233C82.1161 77.2233 81.8595 77.3341 81.6761 77.4817C81.4317 77.6786 81.3583 77.8385 81.3583 78.1953C81.3583 78.7736 81.4561 78.8721 83.6074 80.2501C84.6463 80.9145 85.3919 81.4928 85.5386 81.7143C86.0031 82.4895 85.6975 83.6091 84.8786 84.1136C84.133 84.5688 83.8518 84.4827 80.8449 82.8217C79.1459 81.8866 77.9236 81.2837 77.7158 81.2837C77.2025 81.2837 76.8358 81.6897 76.8358 82.268C76.8358 82.8094 76.9825 82.9447 79.0604 84.3597C79.9771 84.9749 80.136 85.2333 80.136 86.033C80.136 86.476 80.0627 86.6605 79.7326 87.0296C79.3782 87.4111 79.2315 87.4849 78.6448 87.5341C77.9847 87.5833 77.8992 87.5464 76.1513 86.6482C74.1956 85.6147 73.9634 85.5778 73.45 86.1561C73.0955 86.5498 73.0955 86.8574 73.4378 87.4111C73.9634 88.2601 73.7067 89.4289 72.9122 89.8473C72.4232 90.0934 71.531 90.0687 70.9565 89.7735L70.4676 89.5151L70.6998 89.1829C71.042 88.6907 71.2132 88.0878 71.2132 87.3988C71.2132 86.316 70.9931 85.8608 69.9909 84.8272C69.2208 84.0398 68.9641 83.8552 68.4141 83.6952C68.0474 83.5845 67.5462 83.4984 67.3018 83.4984C66.8495 83.4984 66.8495 83.4861 66.7762 82.9447C66.6662 82.1572 66.3239 81.5666 65.505 80.7792C64.6127 79.9056 64.1482 79.6718 63.1948 79.5857L62.4248 79.5242L62.3514 79.0197C62.2048 78.183 61.9725 77.7401 61.2269 76.9526C60.3346 76.0052 59.5646 75.6238 58.55 75.6238H57.7922L57.7067 75.1562C57.5722 74.418 57.23 73.7536 56.631 73.1015C55.5187 71.8587 54.1864 71.4404 52.793 71.9203L52.0229 72.1787L50.7762 71.5511C50.0795 71.2066 49.505 70.9113 49.4805 70.8867C49.4561 70.8621 53.123 60.2314 53.1841 60.1453C53.2086 60.1207 54.6387 60.3914 56.3866 60.7359C58.1222 61.0681 59.6379 61.3511 59.7601 61.3511C60.1146 61.3511 60.5791 60.7974 60.5791 60.3668C60.5791 59.6039 60.3224 59.4932 56.9366 58.8288C54.3453 58.3243 53.8564 58.1889 53.9297 58.029C54.1253 57.5245 54.1253 56.9708 53.9053 56.7125C53.6853 56.4541 43.4179 52 43.0634 52C42.9778 52 42.8067 52.0738 42.6723 52.1476ZM55.1031 74.3688C56.1054 75.4269 56.0321 75.8699 54.6509 77.211C53.8319 78.0108 53.7219 78.0846 53.2452 78.0846C52.8052 78.0846 52.6585 78.0108 52.084 77.4571C50.9962 76.4236 51.0451 75.8945 52.3529 74.6272C53.2575 73.7413 53.4408 73.6428 54.0397 73.7044C54.4309 73.7536 54.6387 73.8889 55.1031 74.3688ZM59.4301 77.9C60.0413 78.3676 60.3957 78.9336 60.3957 79.475C60.3957 79.9179 60.2857 80.0409 58.7334 81.6036C57.2911 83.0308 57.0222 83.2523 56.6799 83.2523C56.1421 83.2523 55.6654 82.9816 55.152 82.3664C54.6387 81.7758 54.5775 81.2098 54.9442 80.6069C55.1887 80.1886 57.78 77.7032 58.11 77.5678C58.44 77.4202 59.0023 77.5678 59.4301 77.9ZM64.026 82.0219C64.3316 82.2803 64.6494 82.674 64.7349 82.8709C65.0161 83.5845 64.8327 83.9659 63.5248 85.2702C62.4125 86.3898 62.2781 86.4883 61.7525 86.5375C61.2025 86.6113 61.1658 86.5867 60.5302 85.9469C59.7968 85.2086 59.6257 84.778 59.8457 84.2489C59.919 84.0521 60.5302 83.363 61.178 82.7109C62.3392 81.5666 62.4003 81.5297 62.9259 81.5297C63.3904 81.5297 63.5615 81.6036 64.026 82.0219ZM68.0229 85.6516C68.2185 85.75 68.573 86.0576 68.8174 86.3529C69.1719 86.759 69.2575 86.9681 69.2575 87.3865C69.2575 87.8294 69.1719 87.9894 68.683 88.5554C67.1918 90.2041 66.2384 90.3025 65.2239 88.8999C64.5882 88.014 64.6738 87.6941 65.8717 86.4883C66.9718 85.3809 67.2896 85.2579 68.0229 85.6516Z" fill="#146356"/>
</svg>
