<svg width="80" height="80" viewBox="0 0 80 80" fill="none" xmlns="http://www.w3.org/2000/svg">
<path d="M35.9987 0.158821C32.2798 0.542702 27.7939 1.71103 24.1752 3.26324C14.9698 7.18549 7.24872 14.8798 3.32979 24.0428C-3.22399 39.3313 0.0612363 56.6392 11.7346 68.3225C18.0216 74.6315 25.4592 78.3034 34.9147 79.7889C36.9492 80.106 43.1695 80.0559 45.5041 79.7054C47.622 79.3883 50.7238 78.6873 51.2908 78.4036C52.1413 77.9529 52.1246 76.7178 51.2575 76.1504C50.8406 75.8666 50.7405 75.8833 48.9228 76.3173C45.4541 77.1184 43.8365 77.3187 40.0844 77.3187C36.2988 77.3354 34.1809 77.085 31.0792 76.3173C29.6116 75.9501 26.5098 74.9653 26.3598 74.8318C26.3264 74.7984 26.3764 74.1141 26.4932 73.2963C26.6766 71.8275 26.6766 71.8275 26.1096 70.1585L25.5259 68.4895L27.427 66.5534C28.9779 64.9845 29.3281 64.5338 29.3281 64.1332C29.3281 63.7994 28.9279 63.0484 28.0941 61.8133L26.8767 59.9773L28.0941 57.5238C28.7778 56.1719 29.3281 54.9201 29.3281 54.7532C29.3281 54.5863 29.028 53.5515 28.6611 52.4666C28.0274 50.5639 27.994 50.3803 27.994 48.3775C27.994 46.7919 27.9273 46.191 27.7439 45.924C27.5771 45.6736 26.76 45.3231 25.1257 44.7723L22.741 43.9879L20.1562 44.6221C18.7387 44.9726 17.3379 45.3231 17.0544 45.4066C16.6375 45.5234 16.1372 46.0742 14.5863 48.1271L12.6518 50.7141H10.7174C8.89967 50.7141 8.78294 50.7308 8.39939 51.1314C7.84907 51.6655 7.84907 52.4333 8.39939 52.9673C8.78294 53.3679 8.86632 53.3846 11.2344 53.3846C12.5851 53.3846 13.8025 53.3178 13.9526 53.2344C14.1027 53.1509 15.1033 51.9158 16.1539 50.4972L18.0716 47.9101L20.3229 47.3427L22.5909 46.7585L23.9083 47.2091L25.2424 47.6598L25.3258 49.479C25.3925 50.9645 25.5093 51.5987 25.9762 52.9673L26.5432 54.6364L25.2591 57.1733C24.5587 58.5753 23.9917 59.8939 23.9917 60.0942C23.9917 60.3111 24.4753 61.2124 25.0757 62.097C25.676 62.9983 26.1596 63.7827 26.1596 63.8495C26.1596 63.9163 25.3759 64.7675 24.4086 65.7355C23.1412 67.0207 22.6576 67.6382 22.6576 67.922C22.6576 68.1556 22.9578 69.2071 23.308 70.2753C23.8083 71.7608 23.9417 72.395 23.875 72.8957C23.825 73.2796 23.7082 73.58 23.6082 73.58C23.3413 73.58 21.0567 72.2949 19.4891 71.2601C14.9532 68.2892 10.584 63.716 7.88242 59.1261C0.17797 46.0241 1.04514 29.8344 10.0837 17.6504C11.3844 15.8979 15.17 11.8922 15.8704 11.5083C16.2206 11.3247 16.5041 11.4416 18.7887 12.6933L21.3068 14.0786L21.3235 15.4139V16.7324L19.3224 18.752C18.1217 19.9704 17.3212 20.9217 17.3212 21.1053C17.3212 21.2889 17.6547 23.0915 18.055 25.0943C18.622 27.8983 18.8554 28.8163 19.1056 29.0166C19.5558 29.3671 25.2258 30.7524 25.7427 30.6189C26.0262 30.5521 26.4598 30.0681 27.1102 29.0833C27.6272 28.3156 28.1108 27.7314 28.1608 27.7982C28.2275 27.8649 28.9446 28.8163 29.745 29.8845C30.5455 30.9694 31.3126 31.8706 31.4627 31.9207C31.6295 31.9708 33.1303 32.2712 34.8313 32.605L37.9164 33.2226L39.9343 35.2254L41.9688 37.2283L45.6042 37.9627C47.6054 38.3632 49.3731 38.697 49.5398 38.697C49.7233 38.697 50.0401 38.5134 50.2569 38.2798C50.6738 37.8792 50.6738 37.8458 50.6738 34.7414C50.6738 32.3213 50.6238 31.5201 50.4403 31.2698C50.3069 31.0862 49.3063 30.4853 48.189 29.9346C47.0717 29.4005 46.1712 28.8831 46.1712 28.8163C46.1712 28.7328 46.7715 27.8649 47.5053 26.8969L48.8561 25.111L52.1913 23.7591L55.5266 22.4239L58.445 18.752L61.3633 15.0968L61.2632 13.6614C61.1298 12.1259 60.8964 11.5584 60.246 11.3247C59.112 10.8908 58.4283 11.6585 58.545 13.2107L58.6284 14.2455L56.2437 17.2498L53.8423 20.2541L50.507 21.5726L47.1718 22.9079L44.9205 25.9122C42.6692 28.8997 42.4691 29.317 42.8359 30.0347C42.936 30.2183 44.1367 30.9193 45.5041 31.6036L48.0056 32.8554V34.2908C48.0056 35.6928 48.0056 35.7261 47.6387 35.6427C47.4219 35.5926 46.388 35.3923 45.3374 35.192L43.4196 34.8248L41.3351 32.7886L39.2505 30.7524L35.9987 30.1181L32.7468 29.4839L30.7623 26.8301C28.0774 23.2083 27.8439 23.1749 25.9762 25.9789C25.3092 26.9637 24.7755 27.7815 24.7588 27.7982C24.7088 27.8816 21.2235 26.947 21.1568 26.8301C21.1067 26.7467 20.8399 25.595 20.5898 24.2598L20.1061 21.823L22.0573 19.8535L23.9917 17.8841V15.4306C23.9917 14.0786 23.925 12.8269 23.825 12.66C23.7416 12.493 22.5409 11.7253 21.1568 10.9575C19.7893 10.2065 18.6553 9.52216 18.6553 9.4387C18.6553 9.20503 21.2568 7.63613 23.5748 6.4845C32.2965 2.17836 42.419 1.49406 51.7578 4.56509C61.1132 7.63613 69.1011 14.596 73.4369 23.4253C75.238 27.1306 76.1885 30.0514 76.8889 34.1906C77.3726 36.9946 77.4059 42.5191 76.9723 45.3732C76.6054 47.7766 75.6882 51.2816 74.9378 53.2511C74.2541 55.0036 74.2374 55.2039 74.7043 55.788C75.0045 56.1719 75.1713 56.2387 75.7383 56.1886C76.6221 56.1218 76.8556 55.7713 77.7061 53.3846C82.8424 38.7972 79.2069 22.6909 68.2673 11.7253C61.6468 5.0825 53.1586 1.09348 43.6864 0.142128C41.702 -0.0581589 38.0498 -0.0414658 35.9987 0.158821Z" fill="#146356"/>
<path d="M62.4473 24.1763C61.3966 24.4434 59.8958 25.3447 59.162 26.1291C58.7951 26.5297 58.2448 27.3642 57.9613 27.9817L57.4277 29.1L57.3777 40.1658L57.3276 51.2148L57.7445 51.6321C58.2949 52.1829 59.062 52.1829 59.5956 51.6321L60.0125 51.2315V40.6498C60.0125 28.7996 59.9792 29.0833 61.1965 27.8649C62.7474 26.3127 65.2822 26.3127 66.8331 27.8649C68.0672 29.1 68.0171 28.5158 68.0171 43.1534C68.0171 51.365 68.0838 56.3555 68.1839 56.5558C68.2673 56.7227 68.9844 57.2735 69.7515 57.7909C70.5353 58.3083 71.4858 59.1094 71.886 59.56C75.7383 63.9663 75.5715 70.1752 71.5192 74.2643C67.3334 78.4703 60.7129 78.4536 56.5105 74.2476C53.0585 70.7927 52.3914 65.7689 54.7928 61.396C55.4932 60.1442 57.2276 58.3416 58.4283 57.6573C59.6623 56.9396 60.0125 56.5725 60.0125 55.9716C60.0125 55.2205 59.4789 54.7198 58.6951 54.7198C58.2115 54.7198 57.7445 54.9201 56.794 55.5377C52.2747 58.4919 49.9234 63.9329 50.9073 69.107C51.8745 74.0807 55.1931 77.8528 60.0125 79.455C61.4634 79.9391 61.7969 79.9724 63.8481 79.9891C66.8998 80.0058 68.9177 79.455 71.219 77.9362C74.1373 76.0335 76.0051 73.3797 76.989 69.8247C77.4226 68.2725 77.3559 65.0178 76.8889 63.3321C76.4553 61.8299 75.5882 60.0107 74.771 58.8924C74.0873 57.9411 72.5197 56.4556 71.4858 55.7546L70.702 55.2038L70.652 42.1519L70.602 29.0833L69.9849 27.8148C68.851 25.5449 66.8498 24.193 64.3817 24.0762C63.6813 24.0428 62.8141 24.0929 62.4473 24.1763Z" fill="#146356"/>
<path d="M63.0976 32.4382L62.6807 32.8387V45.8406V58.8591L62.147 58.9593C60.3627 59.2931 57.9613 61.129 57.0441 62.8648C55.2931 66.1528 55.8101 69.7413 58.4282 72.3617C61.5801 75.5162 66.4495 75.5162 69.618 72.345C72.0694 69.8915 72.6698 66.4366 71.2023 63.3155C70.5686 61.9635 70.0349 61.3961 69.3512 61.3961C68.6842 61.3961 68.0171 62.047 68.0171 62.6812C68.0171 62.9483 68.2005 63.4156 68.4173 63.7494C70.2351 66.4199 69.2011 70.1418 66.2661 71.5772C65.0654 72.1447 62.9642 72.1447 61.7635 71.5772C60.6962 71.0598 59.6956 70.0584 59.1787 68.9902C58.8451 68.3059 58.7618 67.9053 58.7618 66.737C58.7618 65.5687 58.8451 65.1681 59.1787 64.4838C60.0292 62.748 61.6134 61.6631 63.6479 61.4128C65.5157 61.1958 65.3489 62.6645 65.3489 46.6751V32.8387L64.932 32.4382C64.6818 32.1711 64.3316 32.0209 64.0148 32.0209C63.6979 32.0209 63.3477 32.1711 63.0976 32.4382Z" fill="#146356"/>
</svg>
